<svg width="24" height="24" viewBox="0 0 24 24" fill="none" xmlns="http://www.w3.org/2000/svg">
<g clip-path="url(#clip0_187_11326)">
<rect width="24" height="24" rx="12" fill="white"/>
<path d="M-5.88086 0V24H29.8807V0H-5.88086Z" fill="white"/>
<path d="M4.67015 3.88237L1.73718 8.31115L1.00063 7.81684L3.93359 3.38806L4.67015 3.88237ZM5.76995 4.62046L2.83698 9.04924L2.10043 8.55493L5.03339 4.12615L5.76995 4.62046ZM6.86975 5.35855L3.93678 9.78733L3.20023 9.29302L6.13319 4.86424L6.86975 5.35855Z" fill="black"/>
<path d="M4.67001 20.118L1.73704 15.6892L1.00049 16.1835L3.93346 20.6123L4.67001 20.118Z" fill="black"/>
<path d="M5.76981 19.3799L4.4253 17.3497L3.68874 17.844L5.03326 19.8742L5.76981 19.3799Z" fill="black"/>
<path d="M6.86961 18.6418L3.93664 14.213L3.20009 14.7073L6.13306 19.1361L6.86961 18.6418Z" fill="black"/>
<path d="M4.18088 16.9806L2.83684 14.9511L2.10029 15.4454L3.44433 17.4749L4.18088 16.9806Z" fill="black"/>
<path d="M19.4559 7.26268L20.8004 9.2929L20.0638 9.78721L18.7193 7.75699L19.4559 7.26268ZM18.9672 4.12603L21.9002 8.55481L21.1636 9.04912L18.2307 4.62034L18.9672 4.12603ZM21.6555 5.7865L23 7.81672L22.2634 8.31103L20.9189 6.28081L21.6555 5.7865ZM17.8674 4.86412L19.2115 6.89361L18.4749 7.38793L17.1309 5.35843L17.8674 4.86412ZM20.067 3.38794L21.4111 5.41744L20.6745 5.91175L19.3305 3.88225L20.067 3.38794Z" fill="black"/>
<path d="M17.8671 19.1363L19.2116 17.1061L18.475 16.6118L17.1305 18.642L17.8671 19.1363Z" fill="black"/>
<path d="M18.9669 19.8744L20.3114 17.8442L19.5748 17.3498L18.2303 19.3801L18.9669 19.8744Z" fill="black"/>
<path d="M20.0667 20.6125L21.4112 18.5822L20.6746 18.0879L19.3301 20.1182L20.0667 20.6125Z" fill="black"/>
<path d="M19.456 16.737L20.8 14.7075L20.0635 14.2132L18.7194 16.2427L19.456 16.737Z" fill="black"/>
<path d="M20.5558 17.4751L21.8998 15.4456L21.1633 14.9513L19.8192 16.9808L20.5558 17.4751Z" fill="black"/>
<path d="M21.6556 18.2132L22.9996 16.1837L22.2631 15.6894L20.919 17.7189L21.6556 18.2132Z" fill="black"/>
<path d="M14.4824 13.6658C13.8259 14.6578 12.8039 15.3457 11.6415 15.5783C10.479 15.8109 9.27127 15.5691 8.28389 14.9061C7.2965 14.2432 6.61039 13.2133 6.37647 12.0431C6.14255 10.8729 6.38 9.65822 7.03658 8.66629C7.91201 7.34371 9.27457 6.42646 10.8245 6.11632C12.3744 5.80618 13.9848 6.12856 15.3013 7.01253C16.6178 7.89651 17.5326 9.26967 17.8445 10.8299C18.1564 12.3902 17.8398 14.0098 16.9644 15.3323" fill="#CD2E3A"/>
<path d="M11.9987 12.0015C12.4364 11.3403 13.1176 10.8817 13.8925 10.7267C14.6674 10.5716 15.4725 10.7328 16.1307 11.1747C16.7889 11.6167 17.2463 12.3032 17.4022 13.0832C17.5582 13.8633 17.3999 14.673 16.9622 15.3342C16.0869 16.6567 14.7244 17.5738 13.1746 17.8839C11.6248 18.194 10.0146 17.8717 8.69822 16.9878C7.38182 16.1039 6.46708 14.7309 6.15522 13.1708C5.84336 11.6107 6.15993 9.99126 7.03528 8.66881C6.5976 9.33003 6.43932 10.1397 6.59525 10.9198C6.75118 11.6999 7.20855 12.3864 7.86675 12.8283C8.52494 13.2703 9.33005 13.4314 10.1049 13.2764C10.8798 13.1213 11.5611 12.6627 11.9987 12.0015Z" fill="#0047A0"/>
</g>
<defs>
<clipPath id="clip0_187_11326">
<rect width="24" height="24" rx="12" fill="white"/>
</clipPath>
</defs>
</svg>
