<svg width="50" height="50" viewBox="0 0 50 50" fill="none" xmlns="http://www.w3.org/2000/svg">
<path d="M41.033 0H8.96695C4.01465 0 0 4.01465 0 8.96695V41.033C0 45.9854 4.01465 50 8.96695 50H41.033C45.9854 50 50 45.9854 50 41.033V8.96695C50 4.01465 45.9854 0 41.033 0Z" fill="#001E36"/>
<path d="M17.4597 13.272C23.9959 13.272 27.6768 16.3337 27.6768 21.4594C27.6768 27.4451 22.6887 29.8531 18.0102 29.8531H14.8454V36.3205H8.44678V13.272H17.4597ZM14.8454 18.7417V24.3834H17.6662C19.6271 24.3834 21.0031 23.5922 21.0031 21.597C21.0031 19.7738 19.8334 18.7417 17.8038 18.7417H14.8454Z" fill="#31A8FF"/>
<path d="M28.9773 35.1853L29.0118 29.8532C30.835 31.0572 33.3806 31.814 35.1351 31.814C36.3391 31.814 36.8896 31.47 36.8896 30.8507C36.8896 30.1628 36.1327 29.8875 34.688 29.4404C31.9014 28.6147 28.8398 27.4796 28.8398 23.833C28.8398 20.1178 31.9014 18.0537 36.3391 18.0537C38.4376 18.0537 40.1577 18.3633 41.6712 19.0169L41.6368 24.1082C40.4327 23.3858 38.0591 22.7322 36.5111 22.7322C35.3759 22.7322 34.9288 23.0762 34.9288 23.5922C34.9288 24.2114 35.4791 24.3835 37.1304 24.8995C40.3297 25.8627 43.0129 26.8947 43.0129 30.6444C43.0129 34.2221 40.0889 36.6301 35.5135 36.6301C33.1054 36.6301 30.835 36.2173 28.9773 35.1853Z" fill="#31A8FF"/>
</svg>
