<svg width="50" height="50" viewBox="0 0 50 50" fill="none" xmlns="http://www.w3.org/2000/svg">
<path d="M41.033 0H8.96695C4.01465 0 0 4.01465 0 8.96695V41.033C0 45.9854 4.01465 50 8.96695 50H41.033C45.9854 50 50 45.9854 50 41.033V8.96695C50 4.01465 45.9854 0 41.033 0Z" fill="#330000"/>
<path d="M16.9233 13.2721H24.285L32.5413 36.3205H25.7986L24.6635 32.8117H16.0288L14.8936 36.3205H8.42627L16.9233 13.2721ZM22.8746 27.342L20.3633 19.6018L17.8521 27.342H22.8746Z" fill="#FF9A00"/>
<path d="M33.5293 14.7856C33.5293 13.1344 34.8022 12.068 36.7286 12.068C38.6205 12.068 39.8245 13.1689 39.8245 14.7856C39.8245 16.4369 38.6205 17.5721 36.7286 17.5721C34.7333 17.5721 33.5293 16.4714 33.5293 14.7856ZM33.7013 18.3634H39.7214V36.3205H33.7013V18.3634Z" fill="#FF9A00"/>
</svg>
