<svg width="60" height="44" viewBox="0 0 60 44" fill="none" xmlns="http://www.w3.org/2000/svg">
<g clip-path="url(#clip0_190_261)">
<mask id="path-1-inside-1_190_261" fill="white">
<path d="M6.21692 19.813C4.7335 19.813 3.53748 18.8952 3.53748 17.7548C3.53748 16.6144 4.7335 15.7058 6.21692 15.7058C7.70035 15.7058 8.89636 16.6237 8.89636 17.7548C8.89636 18.8859 7.69572 19.813 6.21692 19.813ZM47.0483 8.28865L28.9041 0L11.0798 8.21912C11.0798 8.21912 -0.300886 12.8687 0.0282496 18.0654C0.0282496 18.0654 -0.551214 20.7031 3.40768 22.1031C3.40768 22.1031 6.05004 23.5726 6.05004 24.6573C6.05004 24.6573 5.96196 26.3679 3.98251 27.9904C3.98251 27.9904 -0.0598286 30.6328 3.73682 35.2824C3.73682 35.2824 9.92086 43.6638 30.0491 43.2651C30.0491 43.2651 57.3488 43.0379 59.9031 24.0362C59.9031 24.0362 61.8825 16.7488 47.039 8.28402"/>
</mask>
<path d="M28.9041 0L29.3196 -0.909585L28.9021 -1.10029L28.4853 -0.908104L28.9041 0ZM11.0798 8.21912L11.458 9.14484L11.4785 9.13648L11.4985 9.12722L11.0798 8.21912ZM0.0282496 18.0654L1.00496 18.2799L1.03514 18.1425L1.02625 18.0022L0.0282496 18.0654ZM3.40768 22.1031L3.89372 21.2291L3.82029 21.1883L3.74108 21.1603L3.40768 22.1031ZM6.05004 24.6573L7.04871 24.7088L7.05004 24.6831V24.6573H6.05004ZM3.98251 27.9904L4.52966 28.8275L4.57476 28.798L4.61644 28.7638L3.98251 27.9904ZM3.73682 35.2824L4.54149 34.6887L4.52692 34.6689L4.51139 34.6499L3.73682 35.2824ZM30.0491 43.2651L30.0408 42.2651L30.0293 42.2653L30.0491 43.2651ZM59.9031 24.0362L58.9381 23.774L58.9208 23.8376L58.912 23.9029L59.9031 24.0362ZM6.21692 19.813V18.813C5.02435 18.813 4.53748 18.1135 4.53748 17.7548H3.53748H2.53748C2.53748 19.6768 4.44265 20.813 6.21692 20.813V19.813ZM3.53748 17.7548H4.53748C4.53748 17.4009 5.01796 16.7058 6.21692 16.7058V15.7058V14.7058C4.44903 14.7058 2.53748 15.8279 2.53748 17.7548H3.53748ZM6.21692 15.7058V16.7058C6.75887 16.7058 7.21034 16.8745 7.50506 17.1001C7.79873 17.325 7.89636 17.5653 7.89636 17.7548H8.89636H9.89636C9.89636 16.8132 9.396 16.029 8.7208 15.5121C8.04665 14.996 7.15841 14.7058 6.21692 14.7058V15.7058ZM8.89636 17.7548H7.89636C7.89636 17.944 7.79774 18.1875 7.50139 18.4155C7.20487 18.6437 6.75362 18.813 6.21692 18.813V19.813V20.813C7.15901 20.813 8.04749 20.5188 8.72099 20.0006C9.39467 19.4823 9.89636 18.6966 9.89636 17.7548H8.89636ZM47.0483 8.28865L47.4638 7.37907L29.3196 -0.909585L28.9041 0L28.4886 0.909585L46.6327 9.19824L47.0483 8.28865ZM28.9041 0L28.4853 -0.908104L10.661 7.31101L11.0798 8.21912L11.4985 9.12722L29.3228 0.908104L28.9041 0ZM11.0798 8.21912C10.7016 7.29339 10.7014 7.29349 10.7011 7.2936C10.7009 7.29366 10.7006 7.29378 10.7003 7.2939C10.6997 7.29415 10.699 7.29446 10.698 7.29484C10.6962 7.29561 10.6936 7.29666 10.6904 7.29799C10.6839 7.30066 10.6748 7.30445 10.663 7.30935C10.6394 7.31916 10.6054 7.33342 10.5616 7.352C10.4739 7.38916 10.3472 7.44364 10.1871 7.51444C9.86689 7.65599 9.41232 7.8631 8.86885 8.12776C7.78445 8.65587 6.33424 9.41894 4.88784 10.3536C3.4494 11.2831 1.97117 12.41 0.86356 13.6761C-0.232399 14.9289 -1.07626 16.447 -0.969751 18.1286L0.0282496 18.0654L1.02625 18.0022C0.96819 17.0855 1.42349 16.0736 2.36884 14.993C3.30253 13.9257 4.60775 12.9159 5.97334 12.0334C7.33097 11.1561 8.70535 10.432 9.74454 9.92587C10.2629 9.67344 10.6948 9.47669 10.9957 9.34367C11.1461 9.27718 11.2636 9.22669 11.3426 9.1932C11.382 9.17646 11.4118 9.16397 11.4313 9.15587C11.4411 9.15182 11.4482 9.14886 11.4527 9.14702C11.4549 9.1461 11.4565 9.14545 11.4574 9.14509C11.4578 9.14491 11.4581 9.14479 11.4582 9.14475C11.4583 9.14473 11.4582 9.14475 11.4582 9.14474C11.4581 9.14478 11.458 9.14484 11.0798 8.21912ZM0.0282496 18.0654C-0.94846 17.8508 -0.948623 17.8515 -0.948789 17.8523C-0.948847 17.8526 -0.949015 17.8533 -0.94913 17.8539C-0.949362 17.8549 -0.949601 17.8561 -0.949848 17.8572C-0.950341 17.8595 -0.950864 17.862 -0.951415 17.8647C-0.952516 17.87 -0.953726 17.876 -0.955022 17.8827C-0.957616 17.8961 -0.960561 17.9122 -0.963679 17.9309C-0.969912 17.9683 -0.976868 18.0162 -0.983096 18.0737C-0.995528 18.1884 -1.00522 18.3425 -1.00004 18.5274C-0.989699 18.8969 -0.919658 19.3956 -0.688785 19.946C-0.211886 21.083 0.87575 22.2684 3.07429 23.0459L3.40768 22.1031L3.74108 21.1603C1.98072 20.5378 1.37864 19.7043 1.15554 19.1724C1.03642 18.8884 1.0039 18.6402 0.999175 18.4714C0.996815 18.3871 1.00147 18.3242 1.00526 18.2892C1.00715 18.2718 1.00877 18.2617 1.0091 18.2598C1.00926 18.2588 1.00908 18.2599 1.00844 18.2633C1.00812 18.2649 1.00768 18.2671 1.0071 18.2699C1.00682 18.2713 1.0065 18.2728 1.00614 18.2745C1.00596 18.2753 1.00577 18.2762 1.00558 18.2771C1.00548 18.2776 1.00532 18.2783 1.00528 18.2785C1.00512 18.2792 1.00496 18.2799 0.0282496 18.0654ZM3.40768 22.1031C2.92165 22.977 2.92153 22.9769 2.92141 22.9769C2.92139 22.9769 2.92128 22.9768 2.92123 22.9768C2.92113 22.9767 2.92107 22.9767 2.92105 22.9767C2.92101 22.9767 2.92113 22.9767 2.92139 22.9769C2.92193 22.9772 2.92308 22.9778 2.92483 22.9788C2.92832 22.9808 2.93419 22.9841 2.94227 22.9887C2.95844 22.9979 2.98343 23.0123 3.01598 23.0313C3.08116 23.0695 3.17612 23.1262 3.29082 23.1978C3.522 23.3422 3.82491 23.542 4.12307 23.769C4.4274 24.0008 4.69472 24.2367 4.87647 24.4497C5.08833 24.698 5.05004 24.7586 5.05004 24.6573H6.05004H7.05004C7.05004 24.0137 6.68145 23.4838 6.39787 23.1515C6.08418 22.7839 5.69091 22.4491 5.33465 22.1778C4.97222 21.9018 4.61454 21.6665 4.35028 21.5015C4.21726 21.4184 4.10578 21.3518 4.02646 21.3054C3.98676 21.2821 3.95498 21.2638 3.93245 21.251C3.92117 21.2446 3.9122 21.2395 3.9057 21.2358C3.90244 21.234 3.8998 21.2325 3.8978 21.2314C3.8968 21.2309 3.89596 21.2304 3.89527 21.23C3.89493 21.2298 3.89463 21.2296 3.89437 21.2295C3.89424 21.2294 3.89408 21.2293 3.89401 21.2293C3.89386 21.2292 3.89372 21.2291 3.40768 22.1031ZM6.05004 24.6573C5.05136 24.6059 5.05139 24.6054 5.05142 24.6049C5.05142 24.6047 5.05145 24.6042 5.05147 24.6038C5.05151 24.6032 5.05154 24.6025 5.05158 24.6019C5.05165 24.6007 5.05171 24.5995 5.05177 24.5985C5.0519 24.5964 5.05201 24.5947 5.0521 24.5934C5.05229 24.5907 5.05239 24.5896 5.05235 24.59C5.05229 24.5907 5.0517 24.5973 5.05019 24.6094C5.04715 24.6335 5.04044 24.6793 5.02689 24.7435C4.99978 24.872 4.9455 25.0733 4.83903 25.3224C4.62816 25.8158 4.20507 26.515 3.34858 27.217L3.98251 27.9904L4.61644 28.7638C5.7394 27.8434 6.35007 26.876 6.67811 26.1084C6.84109 25.7271 6.93254 25.3994 6.9838 25.1564C7.00944 25.0349 7.02507 24.9344 7.03459 24.8587C7.03935 24.8208 7.04258 24.789 7.04478 24.7639C7.04587 24.7514 7.04671 24.7404 7.04735 24.7312C7.04766 24.7266 7.04793 24.7225 7.04816 24.7187C7.04827 24.7168 7.04837 24.7151 7.04847 24.7134C7.04851 24.7126 7.04856 24.7118 7.0486 24.711C7.04862 24.7106 7.04865 24.7101 7.04866 24.7099C7.04869 24.7093 7.04871 24.7088 6.05004 24.6573ZM3.98251 27.9904C3.43536 27.1534 3.43484 27.1537 3.43431 27.1541C3.43411 27.1542 3.43355 27.1546 3.43315 27.1548C3.43235 27.1554 3.43149 27.1559 3.43056 27.1565C3.42871 27.1578 3.4266 27.1592 3.42426 27.1607C3.41956 27.1639 3.41388 27.1677 3.40727 27.1722C3.39406 27.1812 3.37709 27.193 3.35675 27.2075C3.31611 27.2366 3.26181 27.2767 3.19694 27.3279C3.06756 27.4299 2.8941 27.5774 2.70231 27.7696C2.32205 28.1508 1.84948 28.7281 1.5178 29.4965C1.18163 30.2753 0.996648 31.2377 1.18794 32.3508C1.37811 33.4574 1.92891 34.6494 2.96224 35.9149L3.73682 35.2824L4.51139 34.6499C3.64641 33.5906 3.27876 32.7087 3.15905 32.0121C3.04048 31.3221 3.15421 30.7521 3.35404 30.2891C3.55836 29.8157 3.8591 29.4419 4.11812 29.1822C4.24598 29.0541 4.35867 28.9588 4.43552 28.8982C4.47377 28.868 4.50261 28.8469 4.51933 28.8349C4.52767 28.829 4.53294 28.8253 4.53479 28.8241C4.53571 28.8235 4.53577 28.8234 4.53493 28.824C4.53451 28.8243 4.53387 28.8247 4.53299 28.8253C4.53255 28.8256 4.53206 28.8259 4.5315 28.8263C4.53122 28.8264 4.53076 28.8267 4.53062 28.8268C4.53015 28.8271 4.52966 28.8275 3.98251 27.9904ZM3.73682 35.2824C2.93214 35.8761 2.93262 35.8768 2.93313 35.8774C2.93333 35.8777 2.93386 35.8784 2.93426 35.879C2.93507 35.8801 2.93597 35.8813 2.93697 35.8826C2.93896 35.8853 2.94135 35.8885 2.94413 35.8921C2.9497 35.8995 2.95684 35.9088 2.96558 35.9201C2.98308 35.9426 3.00701 35.9728 3.0376 36.0101C3.0988 36.0848 3.18667 36.1881 3.30316 36.3158C3.53614 36.5711 3.88347 36.9238 4.36048 37.3396C5.31502 38.1716 6.78625 39.2544 8.89511 40.3164C13.1177 42.4427 19.8596 44.4671 30.0689 44.2649L30.0491 43.2651L30.0293 42.2653C20.1104 42.4617 13.6962 40.4948 9.79463 38.5301C7.84145 37.5465 6.50865 36.5589 5.67467 35.8319C5.25743 35.4682 4.96438 35.1692 4.78055 34.9677C4.68862 34.867 4.62398 34.7906 4.58476 34.7427C4.56515 34.7188 4.55189 34.702 4.54476 34.6928C4.54119 34.6882 4.53916 34.6855 4.53862 34.6848C4.53835 34.6845 4.53846 34.6846 4.53894 34.6852C4.53918 34.6856 4.53952 34.686 4.53994 34.6866C4.54015 34.6869 4.54054 34.6874 4.54065 34.6875C4.54106 34.6881 4.54149 34.6887 3.73682 35.2824ZM30.0491 43.2651C30.0574 44.2651 30.0579 44.2651 30.0584 44.265C30.0587 44.265 30.0594 44.265 30.06 44.265C30.0613 44.265 30.063 44.265 30.0651 44.265C30.0694 44.2649 30.0752 44.2649 30.0827 44.2648C30.0977 44.2646 30.1192 44.2642 30.147 44.2637C30.2026 44.2626 30.2834 44.2607 30.3877 44.2574C30.5965 44.2509 30.8997 44.2388 31.2847 44.2166C32.0544 44.1722 33.1524 44.0873 34.4761 43.9253C37.1195 43.6017 40.6836 42.9678 44.3405 41.7229C51.6181 39.2455 59.5411 34.2355 60.8942 24.1694L59.9031 24.0362L58.912 23.9029C57.7108 32.8386 50.7068 37.443 43.696 39.8296C40.2086 41.0168 36.7882 41.6273 34.2331 41.9401C32.9576 42.0963 31.9028 42.1776 31.1696 42.2199C30.8031 42.241 30.5173 42.2523 30.3249 42.2584C30.2287 42.2614 30.1559 42.2631 30.108 42.264C30.084 42.2645 30.0663 42.2648 30.0551 42.2649C30.0494 42.265 30.0454 42.2651 30.043 42.2651C30.0418 42.2651 30.041 42.2651 30.0407 42.2651C30.0405 42.2651 30.0405 42.2651 30.0404 42.2651C30.0406 42.2651 30.0408 42.2651 30.0491 43.2651ZM59.9031 24.0362C60.8681 24.2983 60.8684 24.2972 60.8687 24.2961C60.8688 24.2957 60.8691 24.2946 60.8693 24.2938C60.8698 24.2922 60.8702 24.2905 60.8707 24.2886C60.8717 24.285 60.8727 24.2808 60.8739 24.2762C60.8762 24.267 60.8789 24.256 60.8819 24.2432C60.8879 24.2175 60.8952 24.1847 60.903 24.1447C60.9187 24.0649 60.9368 23.9568 60.9524 23.8222C60.9838 23.5528 61.0055 23.1773 60.9788 22.7085C60.9254 21.768 60.6782 20.4665 59.9415 18.9072C58.4678 15.7878 55.0747 11.7153 47.5344 7.41534L47.039 8.28402L46.5436 9.15269C53.8469 13.3175 56.8858 17.1211 58.1332 19.7616C58.7571 21.0822 58.9428 22.1316 58.9821 22.822C59.0018 23.1687 58.9848 23.4286 58.9659 23.5908C58.9564 23.672 58.9465 23.7288 58.9404 23.7598C58.9374 23.7753 58.9353 23.7844 58.9347 23.7868C58.9344 23.788 58.9345 23.7876 58.935 23.7855C58.9353 23.7844 58.9357 23.7829 58.9362 23.781C58.9364 23.7801 58.9367 23.779 58.937 23.7778C58.9372 23.7773 58.9374 23.7763 58.9375 23.776C58.9378 23.775 58.9381 23.774 59.9031 24.0362Z" fill="white" mask="url(#path-1-inside-1_190_261)"/>
<mask id="mask0_190_261" style="mask-type:alpha" maskUnits="userSpaceOnUse" x="-1" y="0" width="61" height="44">
<mask id="path-3-inside-2_190_261" fill="white">
<path d="M6.21692 19.813C4.7335 19.813 3.53748 18.8952 3.53748 17.7548C3.53748 16.6144 4.7335 15.7058 6.21692 15.7058C7.70035 15.7058 8.89636 16.6237 8.89636 17.7548C8.89636 18.8859 7.69572 19.813 6.21692 19.813ZM47.0483 8.28865L28.9041 0L11.0798 8.21912C11.0798 8.21912 -0.300886 12.8687 0.0282496 18.0654C0.0282496 18.0654 -0.551214 20.7031 3.40768 22.1031C3.40768 22.1031 6.05004 23.5726 6.05004 24.6573C6.05004 24.6573 5.96196 26.3679 3.98251 27.9904C3.98251 27.9904 -0.0598286 30.6328 3.73682 35.2824C3.73682 35.2824 9.92086 43.6638 30.0491 43.2651C30.0491 43.2651 57.3488 43.0379 59.9031 24.0362C59.9031 24.0362 61.8825 16.7488 47.039 8.28402"/>
</mask>
<path d="M6.21692 19.813C4.7335 19.813 3.53748 18.8952 3.53748 17.7548C3.53748 16.6144 4.7335 15.7058 6.21692 15.7058C7.70035 15.7058 8.89636 16.6237 8.89636 17.7548C8.89636 18.8859 7.69572 19.813 6.21692 19.813ZM47.0483 8.28865L28.9041 0L11.0798 8.21912C11.0798 8.21912 -0.300886 12.8687 0.0282496 18.0654C0.0282496 18.0654 -0.551214 20.7031 3.40768 22.1031C3.40768 22.1031 6.05004 23.5726 6.05004 24.6573C6.05004 24.6573 5.96196 26.3679 3.98251 27.9904C3.98251 27.9904 -0.0598286 30.6328 3.73682 35.2824C3.73682 35.2824 9.92086 43.6638 30.0491 43.2651C30.0491 43.2651 57.3488 43.0379 59.9031 24.0362C59.9031 24.0362 61.8825 16.7488 47.039 8.28402" fill="#D9D9D9"/>
<path d="M28.9041 0L29.3196 -0.909585L28.9021 -1.10029L28.4853 -0.908104L28.9041 0ZM11.0798 8.21912L11.458 9.14484L11.4785 9.13648L11.4985 9.12722L11.0798 8.21912ZM0.0282496 18.0654L1.00496 18.2799L1.03514 18.1425L1.02625 18.0022L0.0282496 18.0654ZM3.40768 22.1031L3.89372 21.2291L3.82029 21.1883L3.74108 21.1603L3.40768 22.1031ZM6.05004 24.6573L7.04871 24.7088L7.05004 24.6831V24.6573H6.05004ZM3.98251 27.9904L4.52966 28.8275L4.57476 28.798L4.61644 28.7638L3.98251 27.9904ZM3.73682 35.2824L4.54149 34.6887L4.52692 34.6689L4.51139 34.6499L3.73682 35.2824ZM30.0491 43.2651L30.0408 42.2651L30.0293 42.2653L30.0491 43.2651ZM59.9031 24.0362L58.9381 23.774L58.9208 23.8376L58.912 23.9029L59.9031 24.0362ZM6.21692 19.813V18.813C5.02435 18.813 4.53748 18.1135 4.53748 17.7548H3.53748H2.53748C2.53748 19.6768 4.44265 20.813 6.21692 20.813V19.813ZM3.53748 17.7548H4.53748C4.53748 17.4009 5.01796 16.7058 6.21692 16.7058V15.7058V14.7058C4.44903 14.7058 2.53748 15.8279 2.53748 17.7548H3.53748ZM6.21692 15.7058V16.7058C6.75887 16.7058 7.21034 16.8745 7.50506 17.1001C7.79873 17.325 7.89636 17.5653 7.89636 17.7548H8.89636H9.89636C9.89636 16.8132 9.396 16.029 8.7208 15.5121C8.04665 14.996 7.15841 14.7058 6.21692 14.7058V15.7058ZM8.89636 17.7548H7.89636C7.89636 17.944 7.79774 18.1875 7.50139 18.4155C7.20487 18.6437 6.75362 18.813 6.21692 18.813V19.813V20.813C7.15901 20.813 8.04749 20.5188 8.72099 20.0006C9.39467 19.4823 9.89636 18.6966 9.89636 17.7548H8.89636ZM47.0483 8.28865L47.4638 7.37907L29.3196 -0.909585L28.9041 0L28.4886 0.909585L46.6327 9.19824L47.0483 8.28865ZM28.9041 0L28.4853 -0.908104L10.661 7.31101L11.0798 8.21912L11.4985 9.12722L29.3228 0.908104L28.9041 0ZM11.0798 8.21912C10.7016 7.29339 10.7014 7.29349 10.7011 7.2936C10.7009 7.29366 10.7006 7.29378 10.7003 7.2939C10.6997 7.29415 10.699 7.29446 10.698 7.29484C10.6962 7.29561 10.6936 7.29666 10.6904 7.29799C10.6839 7.30066 10.6748 7.30445 10.663 7.30935C10.6394 7.31916 10.6054 7.33342 10.5616 7.352C10.4739 7.38916 10.3472 7.44364 10.1871 7.51444C9.86689 7.65599 9.41232 7.8631 8.86885 8.12776C7.78445 8.65587 6.33424 9.41894 4.88784 10.3536C3.4494 11.2831 1.97117 12.41 0.86356 13.6761C-0.232399 14.9289 -1.07626 16.447 -0.969751 18.1286L0.0282496 18.0654L1.02625 18.0022C0.96819 17.0855 1.42349 16.0736 2.36884 14.993C3.30253 13.9257 4.60775 12.9159 5.97334 12.0334C7.33097 11.1561 8.70535 10.432 9.74454 9.92587C10.2629 9.67344 10.6948 9.47669 10.9957 9.34367C11.1461 9.27718 11.2636 9.22669 11.3426 9.1932C11.382 9.17646 11.4118 9.16397 11.4313 9.15587C11.4411 9.15182 11.4482 9.14886 11.4527 9.14702C11.4549 9.1461 11.4565 9.14545 11.4574 9.14509C11.4578 9.14491 11.4581 9.14479 11.4582 9.14475C11.4583 9.14473 11.4582 9.14475 11.4582 9.14474C11.4581 9.14478 11.458 9.14484 11.0798 8.21912ZM0.0282496 18.0654C-0.94846 17.8508 -0.948623 17.8515 -0.948789 17.8523C-0.948847 17.8526 -0.949015 17.8533 -0.94913 17.8539C-0.949362 17.8549 -0.949601 17.8561 -0.949848 17.8572C-0.950341 17.8595 -0.950864 17.862 -0.951415 17.8647C-0.952516 17.87 -0.953726 17.876 -0.955022 17.8827C-0.957616 17.8961 -0.960561 17.9122 -0.963679 17.9309C-0.969912 17.9683 -0.976868 18.0162 -0.983096 18.0737C-0.995528 18.1884 -1.00522 18.3425 -1.00004 18.5274C-0.989699 18.8969 -0.919658 19.3956 -0.688785 19.946C-0.211886 21.083 0.87575 22.2684 3.07429 23.0459L3.40768 22.1031L3.74108 21.1603C1.98072 20.5378 1.37864 19.7043 1.15554 19.1724C1.03642 18.8884 1.0039 18.6402 0.999175 18.4714C0.996815 18.3871 1.00147 18.3242 1.00526 18.2892C1.00715 18.2718 1.00877 18.2617 1.0091 18.2598C1.00926 18.2588 1.00908 18.2599 1.00844 18.2633C1.00812 18.2649 1.00768 18.2671 1.0071 18.2699C1.00682 18.2713 1.0065 18.2728 1.00614 18.2745C1.00596 18.2753 1.00577 18.2762 1.00558 18.2771C1.00548 18.2776 1.00532 18.2783 1.00528 18.2785C1.00512 18.2792 1.00496 18.2799 0.0282496 18.0654ZM3.40768 22.1031C2.92165 22.977 2.92153 22.9769 2.92141 22.9769C2.92139 22.9769 2.92128 22.9768 2.92123 22.9768C2.92113 22.9767 2.92107 22.9767 2.92105 22.9767C2.92101 22.9767 2.92113 22.9767 2.92139 22.9769C2.92193 22.9772 2.92308 22.9778 2.92483 22.9788C2.92832 22.9808 2.93419 22.9841 2.94227 22.9887C2.95844 22.9979 2.98343 23.0123 3.01598 23.0313C3.08116 23.0695 3.17612 23.1262 3.29082 23.1978C3.522 23.3422 3.82491 23.542 4.12307 23.769C4.4274 24.0008 4.69472 24.2367 4.87647 24.4497C5.08833 24.698 5.05004 24.7586 5.05004 24.6573H6.05004H7.05004C7.05004 24.0137 6.68145 23.4838 6.39787 23.1515C6.08418 22.7839 5.69091 22.4491 5.33465 22.1778C4.97222 21.9018 4.61454 21.6665 4.35028 21.5015C4.21726 21.4184 4.10578 21.3518 4.02646 21.3054C3.98676 21.2821 3.95498 21.2638 3.93245 21.251C3.92117 21.2446 3.9122 21.2395 3.9057 21.2358C3.90244 21.234 3.8998 21.2325 3.8978 21.2314C3.8968 21.2309 3.89596 21.2304 3.89527 21.23C3.89493 21.2298 3.89463 21.2296 3.89437 21.2295C3.89424 21.2294 3.89408 21.2293 3.89401 21.2293C3.89386 21.2292 3.89372 21.2291 3.40768 22.1031ZM6.05004 24.6573C5.05136 24.6059 5.05139 24.6054 5.05142 24.6049C5.05142 24.6047 5.05145 24.6042 5.05147 24.6038C5.05151 24.6032 5.05154 24.6025 5.05158 24.6019C5.05165 24.6007 5.05171 24.5995 5.05177 24.5985C5.0519 24.5964 5.05201 24.5947 5.0521 24.5934C5.05229 24.5907 5.05239 24.5896 5.05235 24.59C5.05229 24.5907 5.0517 24.5973 5.05019 24.6094C5.04715 24.6335 5.04044 24.6793 5.02689 24.7435C4.99978 24.872 4.9455 25.0733 4.83903 25.3224C4.62816 25.8158 4.20507 26.515 3.34858 27.217L3.98251 27.9904L4.61644 28.7638C5.7394 27.8434 6.35007 26.876 6.67811 26.1084C6.84109 25.7271 6.93254 25.3994 6.9838 25.1564C7.00944 25.0349 7.02507 24.9344 7.03459 24.8587C7.03935 24.8208 7.04258 24.789 7.04478 24.7639C7.04587 24.7514 7.04671 24.7404 7.04735 24.7312C7.04766 24.7266 7.04793 24.7225 7.04816 24.7187C7.04827 24.7168 7.04837 24.7151 7.04847 24.7134C7.04851 24.7126 7.04856 24.7118 7.0486 24.711C7.04862 24.7106 7.04865 24.7101 7.04866 24.7099C7.04869 24.7093 7.04871 24.7088 6.05004 24.6573ZM3.98251 27.9904C3.43536 27.1534 3.43484 27.1537 3.43431 27.1541C3.43411 27.1542 3.43355 27.1546 3.43315 27.1548C3.43235 27.1554 3.43149 27.1559 3.43056 27.1565C3.42871 27.1578 3.4266 27.1592 3.42426 27.1607C3.41956 27.1639 3.41388 27.1677 3.40727 27.1722C3.39406 27.1812 3.37709 27.193 3.35675 27.2075C3.31611 27.2366 3.26181 27.2767 3.19694 27.3279C3.06756 27.4299 2.8941 27.5774 2.70231 27.7696C2.32205 28.1508 1.84948 28.7281 1.5178 29.4965C1.18163 30.2753 0.996648 31.2377 1.18794 32.3508C1.37811 33.4574 1.92891 34.6494 2.96224 35.9149L3.73682 35.2824L4.51139 34.6499C3.64641 33.5906 3.27876 32.7087 3.15905 32.0121C3.04048 31.3221 3.15421 30.7521 3.35404 30.2891C3.55836 29.8157 3.8591 29.4419 4.11812 29.1822C4.24598 29.0541 4.35867 28.9588 4.43552 28.8982C4.47377 28.868 4.50261 28.8469 4.51933 28.8349C4.52767 28.829 4.53294 28.8253 4.53479 28.8241C4.53571 28.8235 4.53577 28.8234 4.53493 28.824C4.53451 28.8243 4.53387 28.8247 4.53299 28.8253C4.53255 28.8256 4.53206 28.8259 4.5315 28.8263C4.53122 28.8264 4.53076 28.8267 4.53062 28.8268C4.53015 28.8271 4.52966 28.8275 3.98251 27.9904ZM3.73682 35.2824C2.93214 35.8761 2.93262 35.8768 2.93313 35.8774C2.93333 35.8777 2.93386 35.8784 2.93426 35.879C2.93507 35.8801 2.93597 35.8813 2.93697 35.8826C2.93896 35.8853 2.94135 35.8885 2.94413 35.8921C2.9497 35.8995 2.95684 35.9088 2.96558 35.9201C2.98308 35.9426 3.00701 35.9728 3.0376 36.0101C3.0988 36.0848 3.18667 36.1881 3.30316 36.3158C3.53614 36.5711 3.88347 36.9238 4.36048 37.3396C5.31502 38.1716 6.78625 39.2544 8.89511 40.3164C13.1177 42.4427 19.8596 44.4671 30.0689 44.2649L30.0491 43.2651L30.0293 42.2653C20.1104 42.4617 13.6962 40.4948 9.79463 38.5301C7.84145 37.5465 6.50865 36.5589 5.67467 35.8319C5.25743 35.4682 4.96438 35.1692 4.78055 34.9677C4.68862 34.867 4.62398 34.7906 4.58476 34.7427C4.56515 34.7188 4.55189 34.702 4.54476 34.6928C4.54119 34.6882 4.53916 34.6855 4.53862 34.6848C4.53835 34.6845 4.53846 34.6846 4.53894 34.6852C4.53918 34.6856 4.53952 34.686 4.53994 34.6866C4.54015 34.6869 4.54054 34.6874 4.54065 34.6875C4.54106 34.6881 4.54149 34.6887 3.73682 35.2824ZM30.0491 43.2651C30.0574 44.2651 30.0579 44.2651 30.0584 44.265C30.0587 44.265 30.0594 44.265 30.06 44.265C30.0613 44.265 30.063 44.265 30.0651 44.265C30.0694 44.2649 30.0752 44.2649 30.0827 44.2648C30.0977 44.2646 30.1192 44.2642 30.147 44.2637C30.2026 44.2626 30.2834 44.2607 30.3877 44.2574C30.5965 44.2509 30.8997 44.2388 31.2847 44.2166C32.0544 44.1722 33.1524 44.0873 34.4761 43.9253C37.1195 43.6017 40.6836 42.9678 44.3405 41.7229C51.6181 39.2455 59.5411 34.2355 60.8942 24.1694L59.9031 24.0362L58.912 23.9029C57.7108 32.8386 50.7068 37.443 43.696 39.8296C40.2086 41.0168 36.7882 41.6273 34.2331 41.9401C32.9576 42.0963 31.9028 42.1776 31.1696 42.2199C30.8031 42.241 30.5173 42.2523 30.3249 42.2584C30.2287 42.2614 30.1559 42.2631 30.108 42.264C30.084 42.2645 30.0663 42.2648 30.0551 42.2649C30.0494 42.265 30.0454 42.2651 30.043 42.2651C30.0418 42.2651 30.041 42.2651 30.0407 42.2651C30.0405 42.2651 30.0405 42.2651 30.0404 42.2651C30.0406 42.2651 30.0408 42.2651 30.0491 43.2651ZM59.9031 24.0362C60.8681 24.2983 60.8684 24.2972 60.8687 24.2961C60.8688 24.2957 60.8691 24.2946 60.8693 24.2938C60.8698 24.2922 60.8702 24.2905 60.8707 24.2886C60.8717 24.285 60.8727 24.2808 60.8739 24.2762C60.8762 24.267 60.8789 24.256 60.8819 24.2432C60.8879 24.2175 60.8952 24.1847 60.903 24.1447C60.9187 24.0649 60.9368 23.9568 60.9524 23.8222C60.9838 23.5528 61.0055 23.1773 60.9788 22.7085C60.9254 21.768 60.6782 20.4665 59.9415 18.9072C58.4678 15.7878 55.0747 11.7153 47.5344 7.41534L47.039 8.28402L46.5436 9.15269C53.8469 13.3175 56.8858 17.1211 58.1332 19.7616C58.7571 21.0822 58.9428 22.1316 58.9821 22.822C59.0018 23.1687 58.9848 23.4286 58.9659 23.5908C58.9564 23.672 58.9465 23.7288 58.9404 23.7598C58.9374 23.7753 58.9353 23.7844 58.9347 23.7868C58.9344 23.788 58.9345 23.7876 58.935 23.7855C58.9353 23.7844 58.9357 23.7829 58.9362 23.781C58.9364 23.7801 58.9367 23.779 58.937 23.7778C58.9372 23.7773 58.9374 23.7763 58.9375 23.776C58.9378 23.775 58.9381 23.774 59.9031 24.0362Z" fill="white" mask="url(#path-3-inside-2_190_261)"/>
</mask>
<g mask="url(#mask0_190_261)">
<path d="M26.6328 17.7703V37.5769L10.5547 28.8826V9.08374L26.6328 17.7703Z" stroke="white"/>
<path d="M15.4793 24.3223V27.2539L15.4881 27.2588L15.5428 27.2871L23.7449 31.5186V32.8301L14.9099 28.2773C14.5049 28.0725 14.1851 27.7926 13.9607 27.4541C13.7288 27.0945 13.6151 26.6946 13.615 26.2295V23.3535L15.4793 24.3223Z" fill="white"/>
<path d="M23.6619 19.1504V23.4297L23.6707 23.4346L23.7244 23.4619L25.0984 24.1709V25.5752L23.6844 24.8457L23.6619 24.835V29.085L21.8015 28.123V18.1934L23.6619 19.1504Z" fill="white"/>
<path fill-rule="evenodd" clip-rule="evenodd" d="M15.2146 15.8496L15.4041 15.9473V14.8271L17.2693 15.7891V16.9111L17.2781 16.916L17.3318 16.9443L20.1482 18.3945V19.6611L17.2273 18.1611L17.0896 18.0908L18.0174 18.8232C18.933 19.5467 19.574 20.335 19.9402 21.1895L20.0555 21.4785C20.2963 22.1464 20.3463 22.7918 20.2039 23.4102C20.1423 23.6141 20.0495 23.7828 19.9265 23.9189L19.7928 24.0449C19.6847 24.1315 19.5569 24.2025 19.409 24.2568L19.2547 24.3057L19.0262 24.3545C18.3197 24.46 17.4233 24.2437 16.3299 23.6787C15.2587 23.1248 14.3672 22.4068 13.6404 21.5293C13.0804 20.8452 12.7085 20.1723 12.5096 19.5166L12.4344 19.2354C12.2618 18.3696 12.3478 17.7605 12.6707 17.3652L12.6726 17.3633L12.6736 17.3613C12.9951 16.9412 13.5685 16.7957 14.4461 16.9775L15.1541 17.124L15.2596 17.1465L15.1639 17.0957L12.4324 15.6768V14.4111L15.2146 15.8496ZM16.0887 18.5137C15.5639 18.2781 15.1199 18.2217 14.7664 18.3975L14.7654 18.3984L14.6365 18.4736C14.3551 18.6747 14.2234 19.0262 14.2234 19.4844C14.2235 20.0115 14.3961 20.501 14.7185 21.0137L14.7205 21.0176C15.0923 21.575 15.5854 22.0294 16.2156 22.3447C16.8402 22.6707 17.3794 22.7671 17.7957 22.6016L17.7976 22.6035L17.8064 22.5996C18.0064 22.5216 18.1625 22.3942 18.2664 22.2188C18.3694 22.0446 18.4177 21.83 18.4178 21.584C18.4177 21.0556 18.2313 20.5273 17.8894 20L17.8875 19.998C17.5495 19.4936 17.1075 19.0723 16.5594 18.7549L16.3191 18.625L16.0887 18.5137Z" fill="white"/>
<path d="M45.6021 28.8826L29.5239 37.5769V17.7693L45.6021 9.08374V28.8826Z" stroke="white"/>
<mask id="path-8-inside-3_190_261" fill="white">
<path d="M42.1714 14.3242V17.3884L43.5343 16.5864V18.1116L42.1714 18.9182V21.7923L40.2476 22.9698V15.4924L42.1714 14.3242ZM31.5881 27.6333L31.1709 26.5532C35.547 23.4473 35.6861 19.901 35.6861 19.901L31.5139 22.3486V20.9069L37.6748 17.2818V18.997C37.0304 24.2307 31.5881 27.638 31.5881 27.638"/>
</mask>
<path d="M42.1714 14.3242H43.1714V12.5471L41.6524 13.4695L42.1714 14.3242ZM42.1714 17.3884H41.1714V19.1371L42.6786 18.2503L42.1714 17.3884ZM43.5343 16.5864H44.5343V14.8377L43.0272 15.7246L43.5343 16.5864ZM43.5343 18.1116L44.0437 18.9722L44.5343 18.6818V18.1116H43.5343ZM42.1714 18.9182L41.6621 18.0576L41.1714 18.348V18.9182H42.1714ZM42.1714 21.7923L42.6935 22.6453L43.1714 22.3527V21.7923H42.1714ZM40.2476 22.9698H39.2476V24.7543L40.7697 23.8227L40.2476 22.9698ZM40.2476 15.4924L39.7286 14.6377L39.2476 14.9297V15.4924H40.2476ZM31.1709 26.5532L30.5921 25.7377L29.9578 26.1879L30.2381 26.9135L31.1709 26.5532ZM35.6861 19.901L36.6853 19.9402L36.757 18.1133L35.1801 19.0385L35.6861 19.901ZM31.5139 22.3486H30.5139V24.0947L32.02 23.2112L31.5139 22.3486ZM31.5139 20.9069L31.0068 20.0451L30.5139 20.3351V20.9069H31.5139ZM37.6748 17.2818H38.6748V15.5331L37.1677 16.4199L37.6748 17.2818ZM37.6748 18.997L38.6673 19.1192L38.6748 19.0583V18.997H37.6748ZM42.1714 14.3242H41.1714V17.3884H42.1714H43.1714V14.3242H42.1714ZM42.1714 17.3884L42.6786 18.2503L44.0415 17.4483L43.5343 16.5864L43.0272 15.7246L41.6643 16.5266L42.1714 17.3884ZM43.5343 16.5864H42.5343V18.1116H43.5343H44.5343V16.5864H43.5343ZM43.5343 18.1116L43.025 17.251L41.6621 18.0576L42.1714 18.9182L42.6808 19.7788L44.0437 18.9722L43.5343 18.1116ZM42.1714 18.9182H41.1714V21.7923H42.1714H43.1714V18.9182H42.1714ZM42.1714 21.7923L41.6494 20.9394L39.7256 22.1169L40.2476 22.9698L40.7697 23.8227L42.6935 22.6453L42.1714 21.7923ZM40.2476 22.9698H41.2476V15.4924H40.2476H39.2476V22.9698H40.2476ZM40.2476 15.4924L40.7667 16.3472L42.6905 15.179L42.1714 14.3242L41.6524 13.4695L39.7286 14.6377L40.2476 15.4924ZM31.5881 27.6333L32.5209 27.273L32.1037 26.1929L31.1709 26.5532L30.2381 26.9135L30.6553 27.9937L31.5881 27.6333ZM31.1709 26.5532L31.7497 27.3687C34.0879 25.7092 35.3277 23.9052 35.9793 22.4776C36.3035 21.7672 36.479 21.1568 36.5739 20.7126C36.6214 20.4905 36.6487 20.3097 36.6645 20.1784C36.6723 20.1128 36.6773 20.0594 36.6804 20.0194C36.682 19.9994 36.6831 19.9827 36.6839 19.9694C36.6842 19.9628 36.6845 19.9571 36.6848 19.9522C36.6849 19.9497 36.685 19.9475 36.6851 19.9455C36.6851 19.9445 36.6852 19.9436 36.6852 19.9427C36.6852 19.9422 36.6853 19.9416 36.6853 19.9414C36.6853 19.9408 36.6853 19.9402 35.6861 19.901C34.6869 19.8618 34.6869 19.8612 34.6869 19.8607C34.6869 19.8605 34.6869 19.8599 34.6869 19.8596C34.687 19.8589 34.687 19.8583 34.687 19.8577C34.6871 19.8566 34.6871 19.8557 34.6871 19.8549C34.6872 19.8535 34.6873 19.8529 34.6872 19.853C34.6872 19.8534 34.687 19.857 34.6865 19.8637C34.6854 19.8772 34.6831 19.903 34.6787 19.9404C34.6697 20.0152 34.652 20.1358 34.6181 20.2947C34.5501 20.6124 34.4174 21.0827 34.1598 21.6472C33.6477 22.7692 32.63 24.2914 30.5921 25.7377L31.1709 26.5532ZM35.6861 19.901L35.1801 19.0385L31.0079 21.4861L31.5139 22.3486L32.02 23.2112L36.1921 20.7635L35.6861 19.901ZM31.5139 22.3486H32.5139V20.9069H31.5139H30.5139V22.3486H31.5139ZM31.5139 20.9069L32.0211 21.7688L38.1819 18.1437L37.6748 17.2818L37.1677 16.4199L31.0068 20.0451L31.5139 20.9069ZM37.6748 17.2818H36.6748V18.997H37.6748H38.6748V17.2818H37.6748ZM37.6748 18.997L36.6823 18.8748C36.3978 21.1856 35.04 23.1543 33.6673 24.5888C32.989 25.2976 32.3282 25.8539 31.8379 26.2319C31.5933 26.4205 31.3928 26.5635 31.2559 26.6579C31.1875 26.705 31.1351 26.7399 31.1012 26.7621C31.0842 26.7732 31.0719 26.7812 31.0645 26.7859C31.0608 26.7883 31.0583 26.7898 31.0571 26.7906C31.0566 26.791 31.0563 26.7911 31.0563 26.7911C31.0564 26.7911 31.0565 26.791 31.0567 26.7909C31.0567 26.7908 31.057 26.7907 31.057 26.7907C31.0572 26.7905 31.0575 26.7904 31.5881 27.638C32.1188 28.4856 32.119 28.4854 32.1194 28.4852C32.1195 28.4851 32.1198 28.4849 32.1201 28.4848C32.1206 28.4844 32.1212 28.484 32.1219 28.4836C32.1232 28.4828 32.1249 28.4817 32.127 28.4804C32.131 28.4778 32.1364 28.4744 32.143 28.4702C32.1563 28.4617 32.1746 28.4499 32.1976 28.4348C32.2437 28.4045 32.3089 28.3611 32.3905 28.3048C32.5538 28.1924 32.7835 28.0283 33.0592 27.8157C33.6095 27.3914 34.3495 26.7687 35.1123 25.9715C36.6219 24.3939 38.3074 22.0421 38.6673 19.1192L37.6748 18.997Z" fill="white" mask="url(#path-8-inside-3_190_261)"/>
<mask id="path-10-inside-4_190_261" fill="white">
<path d="M39.8954 29.0195C38.7875 30.3036 37.1511 30.7904 36.2425 30.0997C35.3432 29.4043 35.4961 27.8004 36.6133 26.507C37.7213 25.2229 39.353 24.7361 40.2616 25.4315C41.1702 26.1222 41.0034 27.7262 39.8954 29.0195ZM41.504 23.9898C40.0345 22.8726 37.3875 23.6514 35.5888 25.7328C33.7902 27.8235 33.526 30.4195 35.0001 31.5367C36.4696 32.6586 39.1166 31.8751 40.9153 29.7937C42.7093 27.7076 42.9782 25.1116 41.504 23.9944"/>
</mask>
<path d="M39.8954 29.0195L40.6526 29.6728L40.6549 29.6701L39.8954 29.0195ZM36.2425 30.0997L35.6308 30.8908L35.6373 30.8957L36.2425 30.0997ZM36.6133 26.507L37.3701 27.1607L37.3705 27.1603L36.6133 26.507ZM40.2616 25.4315L39.6539 26.2256L39.6565 26.2276L40.2616 25.4315ZM35.5888 25.7328L34.8322 25.079L34.8308 25.0806L35.5888 25.7328ZM35.0001 31.5367L35.6069 30.7419L35.6041 30.7398L35.0001 31.5367ZM40.9153 29.7937L41.6719 30.4475L41.6735 30.4457L40.9153 29.7937ZM39.8954 29.0195L39.1383 28.3663C38.6963 28.8785 38.1692 29.2054 37.7102 29.3413C37.2373 29.4814 36.9647 29.3926 36.8477 29.3036L36.2425 30.0997L35.6373 30.8957C36.4288 31.4975 37.4288 31.5106 38.2782 31.259C39.1415 31.0032 39.9866 30.4447 40.6525 29.6728L39.8954 29.0195ZM36.2425 30.0997L36.8542 29.3086C36.7533 29.2306 36.625 29.0417 36.6667 28.6279C36.7083 28.2145 36.9235 27.6777 37.3701 27.1607L36.6133 26.507L35.8566 25.8533C35.186 26.6296 34.766 27.5415 34.6768 28.4273C34.5875 29.3126 34.8323 30.2734 35.6308 30.8908L36.2425 30.0997ZM36.6133 26.507L37.3705 27.1603C37.8129 26.6474 38.339 26.3211 38.796 26.1859C39.2658 26.0468 39.5363 26.1357 39.6539 26.2256L40.2616 25.4315L40.8694 24.6374C40.0783 24.032 39.0787 24.0165 38.2285 24.268C37.3655 24.5234 36.5217 25.0824 35.8562 25.8537L36.6133 26.507ZM40.2616 25.4315L39.6565 26.2276C39.7546 26.3022 39.8824 26.4842 39.84 26.8974C39.7975 27.3112 39.5806 27.8499 39.136 28.369L39.8954 29.0195L40.6549 29.6701C41.3181 28.8958 41.7387 27.9859 41.8295 27.1017C41.9203 26.2169 41.6773 25.2516 40.8668 24.6354L40.2616 25.4315ZM41.504 23.9898L42.1092 23.1937C41.0384 22.3796 39.6466 22.3317 38.3873 22.7026C37.1145 23.0775 35.8437 23.9084 34.8322 25.079L35.5888 25.7328L36.3455 26.3867C37.1326 25.4758 38.0847 24.8766 38.9524 24.6211C39.8337 24.3615 40.5001 24.4828 40.8988 24.7859L41.504 23.9898ZM35.5888 25.7328L34.8308 25.0806C33.8212 26.2542 33.2029 27.6125 33.0723 28.8988C32.9416 30.1861 33.3032 31.5054 34.3961 32.3337L35.0001 31.5367L35.6041 30.7398C35.2229 30.4508 34.9795 29.9136 35.0621 29.1009C35.1447 28.2872 35.5579 27.3022 36.3469 26.385L35.5888 25.7328ZM35.0001 31.5367L34.3933 32.3316C35.4647 33.1495 36.8577 33.1972 38.1173 32.8256C39.3902 32.4499 40.6607 31.6177 41.6719 30.4475L40.9153 29.7937L40.1586 29.1399C39.3712 30.0511 38.4188 30.6513 37.5513 30.9073C36.6703 31.1673 36.005 31.0458 35.6069 30.7419L35.0001 31.5367ZM40.9153 29.7937L41.6735 30.4457C42.6806 29.2746 43.2987 27.9177 43.43 26.6324C43.5614 25.3462 43.2016 24.0262 42.108 23.1975L41.504 23.9944L40.9 24.7914C41.2806 25.0799 41.5234 25.6165 41.4404 26.4291C41.3573 27.2426 40.9439 28.2267 40.1571 29.1417L40.9153 29.7937Z" fill="white" mask="url(#path-10-inside-4_190_261)"/>
<path d="M30.4567 12.8224C30.2852 12.878 30.1137 12.929 29.9421 12.9707L30.3964 8.91913L33.6646 10.2959C33.1918 11.3992 32.0375 12.3125 30.4567 12.8224ZM24.1011 12.4052L29.5806 10.6482L29.3024 13.1098C27.4667 13.4158 25.5521 13.1423 24.1011 12.4052ZM22.3581 10.9774C21.8296 10.2449 21.672 9.45223 21.8945 8.65953L26.8269 10.9171L23.4336 12.0111C23.0025 11.7191 22.6363 11.3668 22.3581 10.982M25.2276 5.76221C25.4084 5.70194 25.5985 5.64631 25.7793 5.60459L25.3018 9.57276L22.1032 8.10788C22.6177 7.08802 23.7349 6.24896 25.2276 5.76221ZM31.5878 6.15161L26.1269 7.92245L26.4283 5.47016C28.2501 5.15493 30.1507 5.43307 31.5878 6.15161ZM33.3355 7.58868C33.7063 8.10788 33.8918 8.6688 33.8918 9.23435C33.8918 9.40587 33.8732 9.56349 33.8454 9.73501L28.8898 7.6443L32.26 6.55028C32.6911 6.84696 33.0573 7.19001 33.3401 7.58868M33.85 7.26418C32.2785 5.06221 28.3196 4.13971 25.0283 5.20592C23.1833 5.80856 21.8436 6.92577 21.3661 8.27013C21.0045 9.28998 21.176 10.3608 21.8436 11.2972C23.4151 13.4992 27.3693 14.4263 30.656 13.3787C32.5011 12.7853 33.8315 11.6727 34.3182 10.3191C34.6891 9.29925 34.5222 8.20986 33.85 7.26418Z" fill="white"/>
</g>
</g>
<defs>
<clipPath id="clip0_190_261">
<rect width="60" height="43.2836" fill="white"/>
</clipPath>
</defs>
</svg>
