<svg width="50" height="50" viewBox="0 0 50 50" fill="none" xmlns="http://www.w3.org/2000/svg">
<path d="M0 13.75C0 6.15608 6.15609 0 13.75 0H36.25C43.8439 0 50 6.15609 50 13.75V36.25C50 43.8439 43.8439 50 36.25 50H13.75C6.15608 50 0 43.8439 0 36.25V13.75Z" fill="url(#paint0_linear_177_371)"/>
<path d="M27.5929 6.0077C36.1873 5.31249 44.5996 12.0625 45.1873 20.125C45.6248 26.1271 42.4373 30.7478 38.1873 32.8125C36.9354 33.4825 35.4252 34.1793 34.1248 34.75L28.3893 37.3447C28.7473 37.9375 29.1083 38.5281 29.4723 39.1173C29.7719 39.6061 30.1587 40.1798 30.3251 40.7178C30.4549 41.1352 30.4822 41.5783 30.4038 42.0084C29.9248 44.6213 26.2188 45.0699 24.5455 43.3576C23.9157 42.713 23.2499 41.4699 22.7648 40.6757L20.3115 36.6583C19.8919 35.9717 19.4117 35.1399 18.9681 34.4778C19.7701 34.1821 21.0342 33.5803 21.8508 33.2213L27.4799 30.7478L31.8288 28.8393C32.6589 28.4752 33.7807 28.0223 34.543 27.5798C35.3628 27.1082 36.0924 26.4942 36.6967 25.7663C38.3838 23.7113 38.7836 20.9905 37.8237 18.5274C37.2254 16.9929 36.2664 15.8273 35.0011 14.8C33.0947 13.2886 30.4171 12.4819 27.9947 12.6456C27.1369 12.7003 26.29 12.8662 25.4749 13.139C24.7386 13.3877 23.8375 13.8137 23.1118 14.1331L19.4723 15.7333L15.855 17.321C15.0275 17.6823 13.8104 17.9977 13.2449 18.6556C12.8606 19.1026 12.6703 19.6845 12.7161 20.2725C12.7737 20.9655 13.1593 21.5942 13.6873 22.033C14.372 22.5966 15.259 22.8519 16.1382 22.7385C16.7849 22.6598 17.625 22.3108 18.2619 22.033L23.1284 19.8951L24.7855 19.1672C25.5263 18.839 26.3847 18.392 27.1815 18.3233C28.2238 18.2298 29.1982 18.3893 29.9998 19.0625C31.1936 20.0823 31.637 22.0372 30.5603 23.2828C30.3045 23.5728 29.9992 23.8149 29.6585 23.9977C29.203 24.2463 28.4335 24.5577 27.9453 24.7716L24.8552 26.1271L21.4978 27.6034C20.7964 27.9115 19.9902 28.291 19.272 28.5294C18.4425 28.805 17.5807 28.9716 16.7082 29.0246C13.8081 29.2258 10.9457 28.275 8.7413 26.3779C4.19828 22.3943 4.9736 15.1634 10.5726 12.3046C11.1918 11.9884 11.8557 11.7224 12.4937 11.4428L16.0486 9.88192L20.1503 8.0786C21.2492 7.59581 22.2877 7.10905 23.4373 6.74999C24.7859 6.32893 26.1821 6.07955 27.5929 6.0077Z" fill="white"/>
<path d="M26.8212 6.0467C35.0206 5.41304 43.9505 11.2904 44.8121 19.8391C45.3429 25.1051 42.4716 29.981 37.8601 32.4499C36.6082 33.1199 35.2536 33.6624 33.9533 34.2331L28.0145 36.8447C28.3724 37.4375 28.7335 38.0281 29.0975 38.6173C29.3971 39.1062 29.7839 39.6799 29.9503 40.2178C30.0801 40.6352 30.1073 41.0784 30.029 41.5085C29.5499 44.1213 25.844 44.5699 24.1707 42.8576C23.5409 42.213 22.875 40.9699 22.39 40.1757L19.9366 36.1583C19.5171 35.4717 19.0369 34.6399 18.5932 33.9778C19.3952 33.6821 20.6593 33.0803 21.476 32.7213L27.1051 30.2478L31.454 28.3393C32.2841 27.9752 33.4059 27.5223 34.1682 27.0798C34.9879 26.6082 35.7176 25.9942 36.3219 25.2663C38.009 23.2113 38.4087 20.4905 37.4488 18.0274C36.8505 16.493 35.8916 15.3273 34.6263 14.3C32.7198 12.7886 30.0423 11.9819 27.6198 12.1456C26.7621 12.2003 25.9151 12.3662 25.1001 12.639C24.3637 12.8877 23.4626 13.3137 22.737 13.6331L19.0975 15.2333L15.4802 16.8211C14.6527 17.1824 13.2521 17.6711 12.6866 18.329C12.3023 18.776 12.112 19.358 12.1578 19.9459C12.2154 20.6389 12.601 21.2676 13.129 21.7064C13.8137 22.27 14.7007 22.5253 15.5799 22.4119C16.2266 22.3332 17.2502 21.8108 17.887 21.533L22.7536 19.3951L24.4107 18.6672C25.1514 18.339 26.0098 17.892 26.8067 17.8233C27.8489 17.7298 28.8854 18.0556 29.687 18.7288C30.8808 19.7487 31.2621 21.5372 30.1854 22.7828C29.9297 23.0728 29.6244 23.3149 29.2836 23.4977C28.8282 23.7463 28.0586 24.0577 27.5705 24.2716L24.4803 25.6271L21.123 27.1034C20.4216 27.4115 19.6154 27.791 18.8972 28.0294C18.0677 28.305 17.2058 28.4716 16.3334 28.5246C13.4333 28.7258 10.5708 27.775 8.36647 25.8779C3.82344 21.8943 4.20186 15.2024 9.80084 12.3436C10.42 12.0274 11.084 11.7614 11.722 11.4818L15.2769 9.92092L19.3786 8.1176C20.4775 7.63481 21.5159 7.14805 22.6656 6.78899C24.0142 6.36793 25.4104 6.11855 26.8212 6.0467Z" fill="#383838"/>
<defs>
<linearGradient id="paint0_linear_177_371" x1="25" y1="0" x2="25" y2="50" gradientUnits="userSpaceOnUse">
<stop stop-color="white"/>
<stop offset="0.5" stop-color="#C2C2C2"/>
<stop offset="1" stop-color="white"/>
</linearGradient>
</defs>
</svg>
