<svg width="60" height="44" viewBox="0 0 60 44" fill="none" xmlns="http://www.w3.org/2000/svg">
<g clip-path="url(#clip0_177_215)">
<path d="M6.21692 19.813C4.7335 19.813 3.53748 18.8952 3.53748 17.7548C3.53748 16.6144 4.7335 15.7058 6.21692 15.7058C7.70035 15.7058 8.89636 16.6237 8.89636 17.7548C8.89636 18.8859 7.69572 19.813 6.21692 19.813ZM47.0483 8.28865L28.9041 0L11.0798 8.21912C11.0798 8.21912 -0.300886 12.8687 0.0282496 18.0654C0.0282496 18.0654 -0.551214 20.7031 3.40768 22.1031C3.40768 22.1031 6.05004 23.5726 6.05004 24.6573C6.05004 24.6573 5.96196 26.3679 3.98251 27.9904C3.98251 27.9904 -0.0598286 30.6328 3.73682 35.2824C3.73682 35.2824 9.92086 43.6638 30.0491 43.2651C30.0491 43.2651 57.3488 43.0379 59.9031 24.0362C59.9031 24.0362 61.8825 16.7488 47.039 8.28402" fill="#F47521"/>
<path d="M10.0547 29.1817L27.1326 38.416V17.4719L10.0547 8.24683V29.1817Z" fill="white"/>
<path d="M23.7766 19.0806V23.3594L25.2137 24.1011V25.7653L23.7766 25.0236V29.2746L21.6859 28.1944V18.0052L23.7766 19.0806ZM14.8158 18.5012C14.5006 18.6542 14.3383 18.9833 14.3383 19.4839C14.3383 19.9846 14.5006 20.4528 14.8158 20.9535C15.1774 21.4958 15.6549 21.9362 16.2668 22.2422C16.888 22.5667 17.3933 22.6455 17.7641 22.4925C18.1211 22.3534 18.3019 22.0475 18.3019 21.5839C18.3019 21.0833 18.1257 20.578 17.7919 20.0634C17.4164 19.5025 16.9111 19.0482 16.2668 18.7283C15.6456 18.4038 15.1681 18.325 14.8158 18.5012ZM15.5946 27.1839L23.8601 31.4487V33.0202L14.8575 28.3799C14.4357 28.1666 14.1019 27.8746 13.8655 27.5176C13.6198 27.1375 13.4993 26.7157 13.4993 26.2289V23.1647L15.5946 24.2541V27.1839ZM15.2886 15.7615V14.6396L17.384 15.7197V16.8416L20.2628 18.325V19.8502L18.0886 18.733C19.0158 19.4654 19.6694 20.2674 20.0449 21.1435C20.3926 21.9362 20.4853 22.7058 20.3138 23.4428C20.1376 24.0269 19.7158 24.3607 19.0436 24.4673C18.3019 24.5786 17.3794 24.3514 16.2761 23.7812C15.1913 23.2203 14.2873 22.4925 13.5503 21.6025C12.9013 20.8098 12.498 20.0263 12.3218 19.2614C12.1456 18.3806 12.2244 17.727 12.5814 17.2913C12.943 16.8184 13.5734 16.6793 14.4681 16.8648L12.3172 15.7476V14.2224L15.284 15.7568L15.2886 15.7615Z" fill="#1D1D1B"/>
<path d="M46.1019 29.1817L29.0239 38.416V17.4719L46.1019 8.24683V29.1817Z" fill="#1D1D1B"/>
<path d="M42.1714 14.3242V17.3884L43.5343 16.5864V18.1116L42.1714 18.9182V21.7923L40.2476 22.9698V15.4924L42.1714 14.3242ZM31.5881 27.6333L31.1709 26.5532C35.547 23.4473 35.6861 19.901 35.6861 19.901L31.5139 22.3486V20.9069L37.6748 17.2818V18.997C37.0304 24.2307 31.5881 27.638 31.5881 27.638" fill="white"/>
<path d="M39.8954 29.0194C38.7875 30.3035 37.1511 30.7903 36.2425 30.0995C35.3432 29.4042 35.4961 27.8002 36.6133 26.5069C37.7213 25.2228 39.353 24.736 40.2616 25.4314C41.1702 26.1221 41.0034 27.7261 39.8954 29.0194ZM41.504 23.9897C40.0345 22.8725 37.3875 23.6513 35.5888 25.7327C33.7902 27.8234 33.526 30.4194 35.0001 31.5366C36.4696 32.6585 39.1166 31.875 40.9153 29.7936C42.7093 27.7075 42.9782 25.1115 41.504 23.9943" fill="white"/>
<path d="M33.5954 7.42631C35.0928 9.54019 33.7392 12.0806 30.5637 13.1004C27.3929 14.1203 23.6009 13.2302 22.0989 11.1349C20.6015 9.03954 21.9598 6.50844 25.1306 5.48395C28.3061 4.45018 32.0935 5.31706 33.5954 7.42631Z" fill="#1D1D1B"/>
<path d="M30.4567 12.8224C30.2852 12.878 30.1137 12.929 29.9421 12.9707L30.3964 8.91913L33.6646 10.2959C33.1918 11.3992 32.0375 12.3125 30.4567 12.8224ZM24.1011 12.4052L29.5806 10.6482L29.3024 13.1098C27.4667 13.4158 25.5521 13.1423 24.1011 12.4052ZM22.3581 10.9774C21.8296 10.2449 21.672 9.45223 21.8945 8.65953L26.8269 10.9171L23.4336 12.0111C23.0025 11.7191 22.6363 11.3668 22.3581 10.982M25.2276 5.76221C25.4084 5.70194 25.5985 5.64631 25.7793 5.60459L25.3018 9.57276L22.1032 8.10788C22.6177 7.08802 23.7349 6.24896 25.2276 5.76221ZM31.5878 6.15161L26.1269 7.92245L26.4283 5.47016C28.2501 5.15493 30.1507 5.43307 31.5878 6.15161ZM33.3355 7.58868C33.7063 8.10788 33.8918 8.6688 33.8918 9.23435C33.8918 9.40587 33.8732 9.56349 33.8454 9.73501L28.8898 7.6443L32.26 6.55028C32.6911 6.84696 33.0573 7.19001 33.3401 7.58868M33.85 7.26418C32.2785 5.06221 28.3196 4.13971 25.0283 5.20592C23.1833 5.80856 21.8436 6.92577 21.3661 8.27013C21.0045 9.28998 21.176 10.3608 21.8436 11.2972C23.4151 13.4992 27.3693 14.4263 30.656 13.3787C32.5011 12.7853 33.8315 11.6727 34.3182 10.3191C34.6891 9.29925 34.5222 8.20986 33.85 7.26418Z" fill="white"/>
</g>
<defs>
<clipPath id="clip0_177_215">
<rect width="60" height="43.2836" fill="white"/>
</clipPath>
</defs>
</svg>
