<svg width="50" height="50" viewBox="0 0 50 50" fill="none" xmlns="http://www.w3.org/2000/svg">
<path fill-rule="evenodd" clip-rule="evenodd" d="M38.0859 0C45.3125 0 50 4.6875 50 11.9141V38.0859C50 45.3125 45.3125 50 38.0859 50H11.9141C4.6875 50 0 45.3125 0 38.0859V11.9141C0 4.6875 4.6875 0 11.9141 0H38.0859Z" fill="#252525"/>
<g clip-path="url(#clip0_177_355)">
<path d="M19.3063 41.6566C22.3721 41.6566 24.8602 39.1685 24.8602 36.1027V30.5488H19.3063C16.2406 30.5488 13.7524 33.037 13.7524 36.1027C13.7524 39.1685 16.2406 41.6566 19.3063 41.6566Z" fill="#0ACF83"/>
<path d="M13.7524 24.9949C13.7524 21.9292 16.2406 19.441 19.3063 19.441H24.8602V30.5488H19.3063C16.2406 30.5488 13.7524 28.0607 13.7524 24.9949Z" fill="#A259FF"/>
<path d="M13.7524 13.8871C13.7524 10.8214 16.2406 8.33325 19.3063 8.33325H24.8602V19.441H19.3063C16.2406 19.441 13.7524 16.9529 13.7524 13.8871Z" fill="#F24E1E"/>
<path d="M24.8599 8.33325H30.4138C33.4795 8.33325 35.9676 10.8214 35.9676 13.8871C35.9676 16.9529 33.4795 19.441 30.4138 19.441H24.8599V8.33325Z" fill="#FF7262"/>
<path d="M35.9676 24.9949C35.9676 28.0607 33.4795 30.5488 30.4138 30.5488C27.348 30.5488 24.8599 28.0607 24.8599 24.9949C24.8599 21.9292 27.348 19.441 30.4138 19.441C33.4795 19.441 35.9676 21.9292 35.9676 24.9949Z" fill="#1ABCFE"/>
</g>
<defs>
<clipPath id="clip0_177_355">
<rect width="22.22" height="33.3233" fill="white" transform="translate(13.75 8.33325)"/>
</clipPath>
</defs>
</svg>
