<svg width="50" height="50" viewBox="0 0 50 50" fill="none" xmlns="http://www.w3.org/2000/svg">
<path d="M23.9321 13.7722L31.8315 35.821H26.1626L25.1392 32.658L25.0269 32.3123H15.6646L15.5532 32.658L14.5298 35.821H9.14307L17.272 13.7722H23.9321ZM19.8882 19.448L17.3765 27.1882L17.1646 27.8425H23.562L23.3501 27.1882L20.8394 19.448L20.3638 17.9812L19.8882 19.448Z" stroke="white"/>
<path d="M39.2217 18.863V35.821H34.2012V18.863H39.2217ZM36.7285 12.5681C37.5791 12.5681 38.2267 12.8144 38.6543 13.1941C39.0766 13.5691 39.3242 14.1089 39.3242 14.7859C39.3242 15.4837 39.0736 16.0415 38.6494 16.4285C38.2212 16.819 37.5752 17.072 36.7285 17.072C35.82 17.072 35.149 16.8221 34.7119 16.4363C34.2815 16.0563 34.0293 15.5027 34.0293 14.7859C34.0293 14.0988 34.2891 13.5618 34.7295 13.1892C35.1781 12.8097 35.8543 12.5681 36.7285 12.5681Z" stroke="white"/>
</svg>
