<svg width="50" height="50" viewBox="0 0 50 50" fill="none" xmlns="http://www.w3.org/2000/svg">
<path d="M31.7783 9.21997C32.2416 8.88317 32.86 8.82151 33.3877 9.07544L40.25 12.3772C40.7978 12.6408 41.1463 13.1954 41.1465 13.804V36.1956C41.1465 36.8043 40.7979 37.3587 40.25 37.6223L33.3877 40.925C32.9857 41.1185 32.5307 41.1283 32.1318 40.9729C31.933 40.8954 31.7477 40.7764 31.5898 40.6184L31.582 40.6106L31.5732 40.6028L18.4355 28.6165L18.1279 28.3362L17.7959 28.5881L12.0732 32.9319C11.7325 33.1904 11.2559 33.169 10.9395 32.8811L9.10449 31.2122C8.71716 30.8598 8.71668 30.2496 9.10352 29.8967L14.0664 25.3694L14.4707 25.0002L14.0664 24.6301L9.10352 20.1028C8.7167 19.7499 8.71716 19.1407 9.10449 18.7883L10.9395 17.1184C11.2559 16.8306 11.7325 16.8093 12.0732 17.0676L17.7959 21.4124L18.1279 21.6633L18.4355 21.3831L31.5732 9.39673L31.582 9.38892L31.5898 9.3811C31.649 9.32189 31.7122 9.26805 31.7783 9.21997ZM33.0166 17.0344L23.0479 24.6018L22.5225 25.0002L23.0479 25.3977L33.0166 32.9651L33.8184 33.5745V16.426L33.0166 17.0344Z" stroke="white"/>
</svg>
