<svg width="50" height="50" viewBox="0 0 50 50" fill="none" xmlns="http://www.w3.org/2000/svg">
<path d="M26.8594 6.54492C34.851 5.92732 43.4861 11.6699 44.3145 19.8896C44.823 24.9363 42.073 29.6268 37.624 32.0088C37.0094 32.3377 36.3719 32.635 35.7227 32.9219L33.752 33.7754L27.8135 36.3867L27.292 36.6162L27.5869 37.1035C27.9453 37.6969 28.3065 38.2883 28.6709 38.8779V38.8789C28.9934 39.4052 29.3301 39.9048 29.4727 40.3652V40.3662C29.5785 40.7065 29.6008 41.0677 29.5371 41.418C29.3449 42.4661 28.5082 43.1155 27.4551 43.3135C26.3897 43.5137 25.2257 43.2215 24.5283 42.5078C24.2541 42.2271 23.9539 41.7955 23.6504 41.3086C23.3367 40.8054 23.0807 40.3478 22.8164 39.915L20.3633 35.8975C20.0532 35.39 19.6947 34.7763 19.3428 34.2158C20.1148 33.8927 21.0552 33.4519 21.6768 33.1787L27.3057 30.7051L31.6553 28.7969C32.458 28.4448 33.6226 27.9735 34.417 27.5127L34.418 27.5137C35.2891 27.0125 36.0647 26.3596 36.707 25.5859L36.708 25.584C38.5126 23.3858 38.9389 20.473 37.915 17.8457C37.2787 16.2137 36.2583 14.9814 34.9414 13.9121L34.9365 13.9082L34.5518 13.6191C32.5813 12.2164 29.9703 11.4854 27.5859 11.6465C26.6857 11.7041 25.7969 11.8787 24.9414 12.165H24.9404C24.5582 12.2942 24.1326 12.4698 23.7148 12.6514L22.5352 13.1758L18.8965 14.7754L15.2793 16.3633C14.9012 16.5283 14.299 16.7611 13.7705 17.0127C13.2425 17.264 12.6648 17.5875 12.3076 18.0029C11.8367 18.5508 11.6032 19.264 11.6592 19.9844V19.9873C11.7299 20.8391 12.1994 21.5838 12.8096 22.0908L12.8115 22.0928C13.6026 22.7438 14.6276 23.0392 15.6436 22.9082L15.6426 22.9072C16.0413 22.8582 16.5146 22.6828 16.9307 22.5078C17.3377 22.3366 17.8063 22.1136 18.0869 21.9912H18.0879L22.9551 19.8525L24.6113 19.125L24.6133 19.124C25.0058 18.9501 25.377 18.7691 25.7725 18.6123C26.1615 18.458 26.5226 18.3495 26.8496 18.3213H26.8516C27.7596 18.2399 28.6631 18.5228 29.3623 19.1084V19.1094C30.3989 19.995 30.658 21.4673 29.8105 22.4521C29.5941 22.6976 29.3352 22.902 29.0469 23.0566L29.0439 23.0586C28.6139 23.2933 27.8857 23.5876 27.3701 23.8135L24.2793 25.1689L20.9219 26.6455C20.2005 26.9623 19.4283 27.326 18.7393 27.5547C17.9509 27.8166 17.1317 27.975 16.3027 28.0254H16.2988C13.5317 28.2173 10.8004 27.3111 8.69629 25.502C6.53584 23.6075 5.56701 21.0911 5.77832 18.7334C5.98901 16.3832 7.37577 14.1434 10.0283 12.7891C10.3291 12.6355 10.638 12.4952 10.9541 12.3574L11.9229 11.9395L15.4775 10.3789H15.4785L19.5801 8.5752C20.694 8.08581 21.6989 7.61504 22.8145 7.2666C24.1229 6.85806 25.4778 6.61561 26.8467 6.5459L26.8594 6.54492Z" stroke="white"/>
</svg>
