<svg width="50" height="50" viewBox="0 0 50 50" fill="none" xmlns="http://www.w3.org/2000/svg">
<path d="M17.4595 13.772C20.6571 13.772 23.0854 14.522 24.7046 15.8325C26.3091 17.1313 27.1772 19.0266 27.1772 21.4595C27.1772 24.2926 26.0059 26.2421 24.3013 27.4985C22.5772 28.7693 20.2734 29.353 18.0103 29.353H14.3452V35.8208H8.94678V13.772H17.4595ZM14.3452 24.8833H17.6665C18.7017 24.8833 19.6614 24.6761 20.3726 24.1362C21.1075 23.5781 21.5034 22.7216 21.5034 21.5972C21.5034 20.5742 21.1707 19.7116 20.4966 19.1118C19.8311 18.5199 18.8979 18.2418 17.8042 18.2417H14.3452V24.8833Z" stroke="white"/>
<path d="M36.3389 18.5537C38.2439 18.5537 39.8038 18.8152 41.168 19.3506L41.1416 23.2969C40.5988 23.0564 39.9707 22.8393 39.334 22.667C38.3715 22.4065 37.3439 22.2324 36.5107 22.2324C35.9083 22.2325 35.4063 22.3212 35.0391 22.5391C34.6337 22.7796 34.4288 23.1577 34.4287 23.5918C34.4287 23.8269 34.483 24.0593 34.6299 24.2705C34.7696 24.4714 34.9657 24.6127 35.1738 24.7246C35.5709 24.9381 36.1805 25.1267 36.9814 25.377L36.9863 25.3779C38.5958 25.8625 39.9756 26.3396 40.9609 27.1191C41.9061 27.8669 42.5127 28.9151 42.5127 30.6445C42.5127 32.2847 41.848 33.6372 40.665 34.5898C39.4723 35.5501 37.7177 36.1299 35.5137 36.1299C33.2702 36.1299 31.1899 35.7622 29.4785 34.8848L29.5059 30.7314C31.3034 31.714 33.5145 32.3144 35.1348 32.3145C35.7683 32.3145 36.311 32.2258 36.7109 31.999C37.1515 31.749 37.3896 31.3444 37.3896 30.8506C37.3896 30.5778 37.3117 30.3283 37.1543 30.1104C37.0039 29.9021 36.7982 29.7465 36.5781 29.6211C36.1512 29.3778 35.5429 29.1817 34.8359 28.9629L34.8301 28.9609L34.3076 28.8027C33.0938 28.425 31.9243 27.9798 31.0205 27.2959C30.0194 26.5383 29.3398 25.4848 29.3398 23.833C29.3398 22.1305 30.033 20.8354 31.2236 19.9512C32.4314 19.0543 34.1899 18.5538 36.3389 18.5537Z" stroke="white"/>
</svg>
