<svg width="50" height="50" viewBox="0 0 50 50" fill="none" xmlns="http://www.w3.org/2000/svg">
<path fill-rule="evenodd" clip-rule="evenodd" d="M38.0859 0C45.3125 0 50 4.6875 50 11.9141V38.0859C50 45.3125 45.3125 50 38.0859 50H11.9141C4.6875 50 0 45.3125 0 38.0859V11.9141C0 4.6875 4.6875 0 11.9141 0H38.0859Z" fill="#252525"/>
<path d="M24.9981 8.75C15.796 8.75 8.33351 16.2417 8.33351 25.4833C8.32975 28.9907 9.42833 32.4106 11.474 35.2596C13.5196 38.1087 16.4089 40.2428 19.7335 41.3604C20.5668 41.5146 20.871 40.9979 20.871 40.5541C20.871 40.1562 20.8564 39.1041 20.8481 37.7083C16.2127 38.7187 15.2335 35.4646 15.2335 35.4646C14.4773 33.5312 13.3835 33.0167 13.3835 33.0167C11.8689 31.9792 13.496 32 13.496 32C15.1689 32.1187 16.0481 33.725 16.0481 33.725C17.5356 36.2812 19.9502 35.5437 20.9002 35.1146C21.0502 34.0333 21.4814 33.2958 21.9585 32.8771C18.2585 32.4542 14.3668 31.0187 14.3668 24.6083C14.3668 22.7812 15.0168 21.2875 16.0835 20.1167C15.9106 19.6937 15.3398 17.9917 16.246 15.6896C16.246 15.6896 17.646 15.2396 20.8293 17.4042C22.1892 17.0325 23.5925 16.8434 25.0022 16.8417C26.4121 16.8445 27.8153 17.0343 29.1752 17.4062C32.3564 15.2417 33.7543 15.6917 33.7543 15.6917C34.6627 17.9958 34.0918 19.6958 33.921 20.1187C34.9897 21.2896 35.6335 22.7833 35.6335 24.6104C35.6335 31.0375 31.7377 32.4521 28.0252 32.8667C28.6231 33.3833 29.1564 34.4042 29.1564 35.9646C29.1564 38.2021 29.1356 40.0062 29.1356 40.5541C29.1356 41.0021 29.4356 41.5229 30.2814 41.3583C33.6027 40.2381 36.4884 38.1031 38.5313 35.2548C40.5741 32.4064 41.6709 28.9885 41.6668 25.4833C41.6668 16.2417 34.2043 8.75 24.9981 8.75Z" fill="white"/>
</svg>
