<svg width="50" height="50" viewBox="0 0 50 50" fill="none" xmlns="http://www.w3.org/2000/svg">
<g clip-path="url(#clip0_190_365)">
<path d="M19.3062 31.0488H24.3599V36.1025C24.3599 38.8921 22.0958 41.1562 19.3062 41.1562C16.5166 41.1562 14.2524 38.8921 14.2524 36.1025C14.2525 33.3131 16.5167 31.0489 19.3062 31.0488Z" stroke="white"/>
<path d="M19.3062 19.9409H24.3599V30.0483H19.3062C16.5166 30.0482 14.2524 27.7842 14.2524 24.9946C14.2525 22.2052 16.5167 19.941 19.3062 19.9409Z" stroke="white"/>
<path d="M19.3062 8.83325H24.3599V18.9407H19.3062C16.5166 18.9406 14.2524 16.6765 14.2524 13.887C14.2525 11.0975 16.5167 8.83335 19.3062 8.83325Z" stroke="white"/>
<path d="M30.4136 8.83325C33.2031 8.83325 35.4672 11.0974 35.4673 13.887C35.4673 16.6766 33.2032 18.9407 30.4136 18.9407H25.3599V8.83325H30.4136Z" stroke="white"/>
<path d="M30.4136 19.9409C33.2031 19.9409 35.4672 22.2051 35.4673 24.9946C35.4673 27.7842 33.2032 30.0483 30.4136 30.0483C27.6241 30.0482 25.3599 27.7842 25.3599 24.9946C25.36 22.2052 27.6241 19.941 30.4136 19.9409Z" stroke="white"/>
</g>
<defs>
<clipPath id="clip0_190_365">
<rect width="22.22" height="33.3233" fill="white" transform="translate(13.75 8.33325)"/>
</clipPath>
</defs>
</svg>
