<svg width="50" height="50" viewBox="0 0 50 50" fill="none" xmlns="http://www.w3.org/2000/svg">
<path d="M41.033 0H8.96695C4.01465 0 0 4.01465 0 8.96695V41.033C0 45.9854 4.01465 50 8.96695 50H41.033C45.9854 50 50 45.9854 50 41.033V8.96695C50 4.01465 45.9854 0 41.033 0Z" fill="white"/>
<mask id="mask0_177_375" style="mask-type:alpha" maskUnits="userSpaceOnUse" x="8" y="8" width="34" height="34">
<path fill-rule="evenodd" clip-rule="evenodd" d="M31.9708 41.4391C32.4958 41.6436 33.0944 41.6305 33.6243 41.3755L40.4871 38.0733C41.2082 37.7263 41.6668 36.9964 41.6668 36.1958V13.8045C41.6668 13.0038 41.2083 12.274 40.4871 11.927L33.6243 8.62461C32.9289 8.28998 32.115 8.37194 31.5047 8.81567C31.4175 8.87906 31.3344 8.94983 31.2565 9.02782L18.1185 21.0139L12.3959 16.6699C11.8632 16.2655 11.118 16.2987 10.6233 16.7487L8.78784 18.4183C8.18265 18.9688 8.18195 19.9209 8.78634 20.4724L13.7492 25.0001L8.78634 29.5278C8.18195 30.0792 8.18265 31.0313 8.78784 31.5818L10.6233 33.2514C11.118 33.7015 11.8632 33.7346 12.3959 33.3302L18.1185 28.9863L31.2565 40.9723C31.4643 41.1802 31.7084 41.3368 31.9708 41.4391ZM33.3386 17.433L23.3699 25.0001L33.3386 32.5671V17.433Z" fill="white"/>
</mask>
<g mask="url(#mask0_177_375)">
<path d="M40.4875 11.9319L33.6194 8.62505C32.8244 8.24228 31.8743 8.40374 31.2504 9.02764L8.7666 29.5276C8.16184 30.079 8.16253 31.0311 8.7681 31.5816L10.6046 33.2512C11.0997 33.7013 11.8453 33.7344 12.3783 33.33L39.454 12.7898C40.3624 12.1007 41.6671 12.7486 41.6671 13.8888V13.809C41.6671 13.0087 41.2086 12.2791 40.4875 11.9319Z" fill="#0065A9"/>
<g filter="url(#filter0_d_177_375)">
<path d="M40.4875 38.068L33.6194 41.3749C32.8244 41.7578 31.8743 41.5962 31.2504 40.9723L8.7666 20.4724C8.16184 19.921 8.16253 18.9689 8.7681 18.4184L10.6046 16.7488C11.0997 16.2987 11.8453 16.2656 12.3783 16.6699L39.454 37.2101C40.3624 37.8992 41.6671 37.2514 41.6671 36.1112V36.191C41.6671 36.9913 41.2086 37.7208 40.4875 38.068Z" fill="#007ACC"/>
</g>
<g filter="url(#filter1_d_177_375)">
<path d="M33.6198 41.3755C32.8245 41.7581 31.8745 41.5962 31.2505 40.9723C32.0193 41.7411 33.3338 41.1966 33.3338 40.1093V9.89077C33.3338 8.80352 32.0193 8.25903 31.2505 9.02782C31.8745 8.40386 32.8245 8.24217 33.6198 8.62461L40.4867 11.927C41.2083 12.274 41.6672 13.0038 41.6672 13.8045V36.1958C41.6672 36.9964 41.2083 37.7263 40.4867 38.0733L33.6198 41.3755Z" fill="#1F9CF0"/>
</g>
<g style="mix-blend-mode:overlay" opacity="0.25">
<path fill-rule="evenodd" clip-rule="evenodd" d="M31.9508 41.4392C32.4758 41.6437 33.0744 41.6306 33.6043 41.3756L40.4671 38.0734C41.1882 37.7264 41.6468 36.9966 41.6468 36.1959V13.8046C41.6468 13.0039 41.1882 12.2741 40.4671 11.9271L33.6043 8.62473C32.9089 8.2901 32.095 8.37206 31.4846 8.81579C31.3975 8.87918 31.3144 8.94995 31.2365 9.02795L18.0985 21.014L12.3759 16.67C11.8432 16.2656 11.098 16.2988 10.6033 16.7488L8.76782 18.4184C8.16263 18.969 8.16193 19.9211 8.76632 20.4725L13.7292 25.0002L8.76632 29.5279C8.16193 30.0793 8.16263 31.0314 8.76782 31.5819L10.6033 33.2515C11.098 33.7016 11.8432 33.7347 12.3759 33.3303L18.0985 28.9864L31.2365 40.9724C31.4443 41.1803 31.6883 41.337 31.9508 41.4392ZM33.3185 17.4331L23.3498 25.0002L33.3185 32.5672V17.4331Z" fill="url(#paint0_linear_177_375)"/>
</g>
</g>
<defs>
<filter id="filter0_d_177_375" x="-8.3532" y="-0.279106" width="66.6869" height="58.5264" filterUnits="userSpaceOnUse" color-interpolation-filters="sRGB">
<feFlood flood-opacity="0" result="BackgroundImageFix"/>
<feColorMatrix in="SourceAlpha" type="matrix" values="0 0 0 0 0 0 0 0 0 0 0 0 0 0 0 0 0 0 127 0" result="hardAlpha"/>
<feOffset/>
<feGaussianBlur stdDeviation="8.33334"/>
<feColorMatrix type="matrix" values="0 0 0 0 0 0 0 0 0 0 0 0 0 0 0 0 0 0 0.25 0"/>
<feBlend mode="overlay" in2="BackgroundImageFix" result="effect1_dropShadow_177_375"/>
<feBlend mode="normal" in="SourceGraphic" in2="effect1_dropShadow_177_375" result="shape"/>
</filter>
<filter id="filter1_d_177_375" x="14.5838" y="-8.24737" width="43.7499" height="66.4949" filterUnits="userSpaceOnUse" color-interpolation-filters="sRGB">
<feFlood flood-opacity="0" result="BackgroundImageFix"/>
<feColorMatrix in="SourceAlpha" type="matrix" values="0 0 0 0 0 0 0 0 0 0 0 0 0 0 0 0 0 0 127 0" result="hardAlpha"/>
<feOffset/>
<feGaussianBlur stdDeviation="8.33334"/>
<feColorMatrix type="matrix" values="0 0 0 0 0 0 0 0 0 0 0 0 0 0 0 0 0 0 0.25 0"/>
<feBlend mode="overlay" in2="BackgroundImageFix" result="effect1_dropShadow_177_375"/>
<feBlend mode="normal" in="SourceGraphic" in2="effect1_dropShadow_177_375" result="shape"/>
</filter>
<linearGradient id="paint0_linear_177_375" x1="24.9801" y1="8.41943" x2="24.9801" y2="41.5809" gradientUnits="userSpaceOnUse">
<stop stop-color="white"/>
<stop offset="1" stop-color="white" stop-opacity="0"/>
</linearGradient>
</defs>
</svg>
