<svg width="60" height="36" viewBox="0 0 60 36" fill="none" xmlns="http://www.w3.org/2000/svg">
<g clip-path="url(#clip0_190_270)">
<path d="M17.7568 0.806641H34.1133C36.4613 0.806641 38.3711 2.71605 38.3711 5.06641C38.3709 7.41602 36.4617 9.32129 34.1133 9.32129H19.0566L18.9102 9.4668L11.0771 17.2715L10.7217 17.626L11.0771 17.9795L18.9102 25.79L19.0566 25.9365H34.1133C36.4616 25.9365 38.371 27.8436 38.3711 30.1914C38.3711 32.5393 36.4617 34.4473 34.1133 34.4473H17.7568C16.6235 34.4473 15.9568 34.3151 15.4648 34.0918C14.9726 33.8683 14.6068 33.533 14.0928 33.0117L14.0908 33.0098L1.74219 20.6777C0.955858 19.8789 0.500076 18.769 0.5 17.626C0.5 16.4823 0.954182 15.3765 1.74219 14.5801L14.0908 2.24609L14.0918 2.24512C14.6091 1.72571 14.9742 1.39009 15.4668 1.16504C15.9583 0.940546 16.6242 0.806641 17.7568 0.806641Z" stroke="white"/>
<path d="M55.0249 0.5C56.2256 0.5 57.3456 0.963599 58.188 1.81152L58.189 1.8125C59.0365 2.66 59.5024 3.78142 59.5024 4.98145C59.5024 6.18206 59.0383 7.3016 58.1909 8.1416L58.1899 8.14258L49.0337 17.2715L48.6782 17.626L49.0337 17.9795L58.1899 27.1094C59.0367 27.9524 59.5024 29.0727 59.5024 30.2686C59.5024 31.4653 59.0381 32.5958 58.1899 33.4443C57.3414 34.2871 56.2156 34.7559 55.0249 34.7559C53.9079 34.7558 52.845 34.3451 52.0142 33.5977L51.8511 33.4434L37.1011 18.6855C36.5409 18.0923 36.5429 17.1497 37.1138 16.5537L37.1128 16.5527L51.8521 1.81348C52.7017 0.965716 53.8248 0.500021 55.0249 0.5Z" stroke="white"/>
</g>
<defs>
<clipPath id="clip0_190_270">
<rect width="60" height="35.2558" fill="white"/>
</clipPath>
</defs>
</svg>
