<svg width="50" height="50" viewBox="0 0 50 50" fill="none" xmlns="http://www.w3.org/2000/svg">
<path d="M13.1655 33.4668L13.1675 33.4678H13.1685C13.1717 33.4695 13.1773 33.4731 13.1851 33.4775C13.2048 33.4888 13.2388 33.5093 13.2837 33.54C13.3739 33.602 13.51 33.7068 13.6704 33.8682C13.989 34.1888 14.4111 34.7394 14.7632 35.6348C14.7661 35.6436 14.7695 35.6545 14.7739 35.667C14.7849 35.6983 14.8013 35.741 14.8228 35.793C14.8655 35.8968 14.9303 36.0392 15.0239 36.2041C15.2109 36.5335 15.5142 36.9596 15.9819 37.3496C16.8575 38.0796 18.2437 38.6276 20.3521 38.3057C20.3604 39.407 20.3706 40.2144 20.3706 40.5537C20.3706 40.6726 20.3294 40.7653 20.2769 40.8135C20.2409 40.8464 20.1349 40.9182 19.856 40.873C16.6464 39.7855 13.8573 37.7211 11.8804 34.9678C9.89587 32.2039 8.82985 28.886 8.8335 25.4834L8.83838 25.0645C9.05966 16.2907 16.2139 9.25 24.9985 9.25C33.9266 9.25025 41.1665 16.5162 41.1665 25.4834V25.4844C41.1703 28.8846 40.1062 32.2008 38.1245 34.9639C36.1502 37.7164 33.3643 39.7811 30.1577 40.8711C29.8682 40.9216 29.7626 40.8482 29.729 40.8174C29.6782 40.7708 29.6353 40.6782 29.6353 40.5537C29.6353 40.2817 29.6408 39.6979 29.646 38.8965C29.6512 38.0968 29.6567 37.085 29.6567 35.9648C29.6567 34.8176 29.386 33.9051 28.98 33.2412C30.5919 32.9827 32.2349 32.476 33.5435 31.376C35.1212 30.0496 36.1333 27.9324 36.1333 24.6104C36.1333 22.7703 35.5196 21.2338 34.4888 20.0088C34.7251 19.2648 35.0497 17.6143 34.2192 15.5078L34.1323 15.2881L33.9077 15.2158L33.7661 15.6553C33.8945 15.2563 33.9061 15.2194 33.9067 15.2158L33.9058 15.2148H33.9038C33.9024 15.2144 33.9005 15.2134 33.8989 15.2129C33.8957 15.2119 33.892 15.2111 33.8882 15.21C33.8802 15.2077 33.8706 15.2049 33.8599 15.2021C33.8383 15.1967 33.8108 15.1906 33.7778 15.1846C33.7115 15.1725 33.6219 15.1605 33.5093 15.1553C33.2838 15.1448 32.967 15.1607 32.5542 15.248C31.7617 15.4157 30.6202 15.8495 29.0854 16.8672C27.7522 16.5224 26.3811 16.3445 25.0034 16.3418H25.0015C23.6235 16.3435 22.252 16.5206 20.9185 16.8652C19.383 15.8478 18.241 15.4138 17.4478 15.2461C17.0347 15.1588 16.7174 15.1429 16.4917 15.1533C16.3791 15.1585 16.2896 15.1706 16.2231 15.1826C16.1901 15.1886 16.1628 15.1948 16.1411 15.2002C16.1303 15.2029 16.1208 15.2057 16.1128 15.208C16.1089 15.2091 16.1053 15.21 16.1021 15.2109C16.1005 15.2114 16.0986 15.2115 16.0972 15.2119L16.0952 15.2129H16.0942C16.0937 15.213 16.0927 15.2137 16.2456 15.6895L16.0933 15.2139L15.8677 15.2861L15.7808 15.5068C14.9526 17.6108 15.2759 19.2621 15.5142 20.0078C14.486 21.2316 13.8667 22.7679 13.8667 24.6084C13.8667 27.9225 14.8785 30.0399 16.4526 31.3701C17.7599 32.4748 19.4011 32.9873 21.0103 33.25C20.7617 33.6599 20.566 34.164 20.4526 34.7588C20.0062 34.9315 19.376 35.0999 18.7202 35.041C17.9717 34.9738 17.1445 34.6101 16.4849 33.4814C16.4839 33.4798 16.4823 33.477 16.481 33.4746C16.4782 33.4698 16.4746 33.4636 16.4702 33.4561C16.4612 33.4405 16.4483 33.4188 16.4321 33.3926C16.3997 33.3402 16.3526 33.2675 16.2915 33.1816C16.1696 33.0105 15.9881 32.7814 15.7476 32.5479C15.2695 32.0839 14.5267 31.5717 13.5317 31.501L13.5171 31.5H13.4741C13.4587 31.5001 13.4372 31.5001 13.4116 31.501C13.3609 31.5028 13.2902 31.5068 13.2104 31.5156C13.0709 31.5311 12.827 31.5691 12.6235 31.6855C12.5163 31.7469 12.3743 31.8565 12.2944 32.041C12.2083 32.2405 12.2303 32.444 12.3013 32.6133C12.423 32.9031 12.7181 33.1664 13.1011 33.4287L13.1343 33.4521L13.1655 33.4668Z" stroke="white"/>
</svg>
