<svg width="60" height="36" viewBox="0 0 60 36" fill="none" xmlns="http://www.w3.org/2000/svg">
<g clip-path="url(#clip0_177_224)">
<path d="M1.38884 21.0316C0.50786 20.1382 0 18.9006 0 17.6258C0 16.351 0.505787 15.1176 1.38884 14.2263L13.7371 1.89253C14.7715 0.854007 15.4224 0.306763 17.7564 0.306763H34.1137C36.7379 0.306763 38.871 2.43977 38.871 5.06613C38.871 7.69249 36.7379 9.82136 34.1137 9.82136H19.2634L11.43 17.6258L19.2634 25.4365H34.1137C36.7379 25.4365 38.871 27.5674 38.871 30.1917C38.871 32.816 36.7379 34.9469 34.1137 34.9469H17.7564C15.4224 34.9469 14.7673 34.408 13.7371 33.3632L1.38884 21.0316Z" fill="#F47521"/>
<path d="M51.499 33.7986L36.7379 19.0292C35.9937 18.2415 35.9979 16.9957 36.7524 16.208L51.499 1.45932C52.4422 0.518224 53.6921 0 55.025 0C56.3579 0 57.6057 0.516151 58.5427 1.45932C59.4838 2.40041 60.002 3.6483 60.002 4.98117C60.002 6.31404 59.4859 7.56193 58.5427 8.4968L49.3867 17.6258L58.5427 26.7549C59.4838 27.6918 60.002 28.9397 60.002 30.2684C60.002 31.5972 59.4859 32.8554 58.5427 33.7986C57.6016 34.7335 56.3496 35.2558 55.025 35.2558C53.7004 35.2558 52.4442 34.7355 51.499 33.7986Z" fill="#F47521"/>
</g>
<defs>
<clipPath id="clip0_177_224">
<rect width="60" height="35.2558" fill="white"/>
</clipPath>
</defs>
</svg>
